<mxfile host="app.diagrams.net" modified="2024-06-21T23:10:30.526Z" agent="Mozilla/5.0 (X11; Linux x86_64) AppleWebKit/537.36 (KHTML, like Gecko) Chrome/123.0.0.0 Safari/537.36" etag="svICsXpik02gW2iQlbye" version="24.4.3" type="device" pages="7">
  <diagram name="Casos de Uso" id="rwVqQcGSeMi6LIKSYKp5">
    <mxGraphModel dx="1434" dy="754" grid="1" gridSize="10" guides="1" tooltips="1" connect="1" arrows="1" fold="1" page="1" pageScale="1" pageWidth="850" pageHeight="1100" math="0" shadow="0">
      <root>
        <mxCell id="0" />
        <mxCell id="1" parent="0" />
        <mxCell id="Yo0diX8_wTfVSnEAWruE-1" value="app movil&lt;br&gt;" style="shape=umlActor;verticalLabelPosition=bottom;verticalAlign=top;html=1;outlineConnect=0;" parent="1" vertex="1">
          <mxGeometry x="650" y="90" width="30" height="60" as="geometry" />
        </mxCell>
        <mxCell id="Yo0diX8_wTfVSnEAWruE-3" value="funcionario&lt;br&gt;" style="shape=umlActor;verticalLabelPosition=bottom;verticalAlign=top;html=1;outlineConnect=0;" parent="1" vertex="1">
          <mxGeometry x="150" y="280" width="30" height="60" as="geometry" />
        </mxCell>
        <mxCell id="Yo0diX8_wTfVSnEAWruE-4" value="" style="swimlane;startSize=0;" parent="1" vertex="1">
          <mxGeometry x="240" y="30" width="370" height="530" as="geometry" />
        </mxCell>
        <mxCell id="Yo0diX8_wTfVSnEAWruE-6" value="Registrar estudiantes" style="ellipse;whiteSpace=wrap;html=1;" parent="Yo0diX8_wTfVSnEAWruE-4" vertex="1">
          <mxGeometry x="260" y="30" width="80" height="50" as="geometry" />
        </mxCell>
        <mxCell id="Yo0diX8_wTfVSnEAWruE-7" value="Enviar resultados de estudiantes" style="ellipse;whiteSpace=wrap;html=1;" parent="Yo0diX8_wTfVSnEAWruE-4" vertex="1">
          <mxGeometry x="250" y="110" width="100" height="60" as="geometry" />
        </mxCell>
        <mxCell id="Yo0diX8_wTfVSnEAWruE-10" value="Registrar&lt;div&gt;usuario&lt;/div&gt;" style="ellipse;whiteSpace=wrap;html=1;" parent="Yo0diX8_wTfVSnEAWruE-4" vertex="1">
          <mxGeometry x="30" y="70" width="90" height="50" as="geometry" />
        </mxCell>
        <mxCell id="bxYPeCpVYEwiYOKak1IT-2" value="Ver graficos con información de los estudiantes" style="ellipse;whiteSpace=wrap;html=1;" vertex="1" parent="Yo0diX8_wTfVSnEAWruE-4">
          <mxGeometry x="20" y="270" width="120" height="60" as="geometry" />
        </mxCell>
        <mxCell id="bxYPeCpVYEwiYOKak1IT-3" value="Descargar Información" style="ellipse;whiteSpace=wrap;html=1;" vertex="1" parent="Yo0diX8_wTfVSnEAWruE-4">
          <mxGeometry x="35" y="350" width="90" height="50" as="geometry" />
        </mxCell>
        <mxCell id="bxYPeCpVYEwiYOKak1IT-4" value="Ver información especifica de un estudiante" style="ellipse;whiteSpace=wrap;html=1;" vertex="1" parent="Yo0diX8_wTfVSnEAWruE-4">
          <mxGeometry x="20" y="430" width="135" height="60" as="geometry" />
        </mxCell>
        <mxCell id="Yo0diX8_wTfVSnEAWruE-8" value="" style="endArrow=none;html=1;rounded=0;entryX=0.5;entryY=0.5;entryDx=0;entryDy=0;entryPerimeter=0;exitX=1;exitY=0.5;exitDx=0;exitDy=0;" parent="1" source="Yo0diX8_wTfVSnEAWruE-7" target="Yo0diX8_wTfVSnEAWruE-1" edge="1">
          <mxGeometry width="50" height="50" relative="1" as="geometry">
            <mxPoint x="440" y="250" as="sourcePoint" />
            <mxPoint x="490" y="200" as="targetPoint" />
          </mxGeometry>
        </mxCell>
        <mxCell id="Yo0diX8_wTfVSnEAWruE-9" value="" style="endArrow=none;html=1;rounded=0;entryX=0.5;entryY=0.5;entryDx=0;entryDy=0;entryPerimeter=0;exitX=1;exitY=0.5;exitDx=0;exitDy=0;" parent="1" source="Yo0diX8_wTfVSnEAWruE-6" target="Yo0diX8_wTfVSnEAWruE-1" edge="1">
          <mxGeometry width="50" height="50" relative="1" as="geometry">
            <mxPoint x="600" y="190" as="sourcePoint" />
            <mxPoint x="675" y="130" as="targetPoint" />
          </mxGeometry>
        </mxCell>
      </root>
    </mxGraphModel>
  </diagram>
  <diagram id="D9-TyB2NkuLLYHnGqgeJ" name="MER">
    <mxGraphModel dx="1367" dy="317" grid="1" gridSize="10" guides="1" tooltips="1" connect="1" arrows="1" fold="1" page="1" pageScale="1" pageWidth="827" pageHeight="1169" math="0" shadow="0">
      <root>
        <mxCell id="0" />
        <mxCell id="1" parent="0" />
        <mxCell id="_tTiy5UMwJFDo4vPP5Ci-2" value="Estudiante" style="rounded=1;whiteSpace=wrap;html=1;" vertex="1" parent="1">
          <mxGeometry x="320" y="325" width="100" height="40" as="geometry" />
        </mxCell>
        <mxCell id="_tTiy5UMwJFDo4vPP5Ci-3" value="App" style="rounded=1;whiteSpace=wrap;html=1;" vertex="1" parent="1">
          <mxGeometry x="650" y="325" width="100" height="40" as="geometry" />
        </mxCell>
        <mxCell id="_tTiy5UMwJFDo4vPP5Ci-4" value="Capitulo" style="rounded=1;whiteSpace=wrap;html=1;" vertex="1" parent="1">
          <mxGeometry x="980" y="325" width="100" height="40" as="geometry" />
        </mxCell>
        <mxCell id="_tTiy5UMwJFDo4vPP5Ci-6" value="Pregunta" style="rounded=1;whiteSpace=wrap;html=1;" vertex="1" parent="1">
          <mxGeometry x="980" y="510" width="100" height="40" as="geometry" />
        </mxCell>
        <mxCell id="_tTiy5UMwJFDo4vPP5Ci-7" value="Puntaje" style="rounded=1;whiteSpace=wrap;html=1;" vertex="1" parent="1">
          <mxGeometry x="320" y="510" width="100" height="40" as="geometry" />
        </mxCell>
        <mxCell id="b18a_00D_Y3r3EYs8vVv-1" value="pertenece a" style="rhombus;whiteSpace=wrap;html=1;" vertex="1" parent="1">
          <mxGeometry x="490" y="320" width="90" height="50" as="geometry" />
        </mxCell>
        <mxCell id="b18a_00D_Y3r3EYs8vVv-3" value="" style="endArrow=none;html=1;rounded=0;entryX=1;entryY=0.5;entryDx=0;entryDy=0;exitX=0;exitY=0.5;exitDx=0;exitDy=0;" edge="1" parent="1" source="b18a_00D_Y3r3EYs8vVv-1" target="_tTiy5UMwJFDo4vPP5Ci-2">
          <mxGeometry width="50" height="50" relative="1" as="geometry">
            <mxPoint x="380" y="625" as="sourcePoint" />
            <mxPoint x="430" y="575" as="targetPoint" />
          </mxGeometry>
        </mxCell>
        <mxCell id="b18a_00D_Y3r3EYs8vVv-4" value="" style="endArrow=none;html=1;rounded=0;entryX=1;entryY=0.5;entryDx=0;entryDy=0;exitX=0;exitY=0.5;exitDx=0;exitDy=0;" edge="1" parent="1" source="_tTiy5UMwJFDo4vPP5Ci-3" target="b18a_00D_Y3r3EYs8vVv-1">
          <mxGeometry width="50" height="50" relative="1" as="geometry">
            <mxPoint x="450" y="450" as="sourcePoint" />
            <mxPoint x="390" y="395" as="targetPoint" />
          </mxGeometry>
        </mxCell>
        <mxCell id="b18a_00D_Y3r3EYs8vVv-5" value="se divide en" style="rhombus;whiteSpace=wrap;html=1;" vertex="1" parent="1">
          <mxGeometry x="817" y="320" width="90" height="50" as="geometry" />
        </mxCell>
        <mxCell id="b18a_00D_Y3r3EYs8vVv-6" value="" style="endArrow=none;html=1;rounded=0;entryX=0;entryY=0.5;entryDx=0;entryDy=0;exitX=1;exitY=0.5;exitDx=0;exitDy=0;" edge="1" parent="1" source="b18a_00D_Y3r3EYs8vVv-5" target="_tTiy5UMwJFDo4vPP5Ci-4">
          <mxGeometry width="50" height="50" relative="1" as="geometry">
            <mxPoint x="480" y="760" as="sourcePoint" />
            <mxPoint x="500" y="490" as="targetPoint" />
          </mxGeometry>
        </mxCell>
        <mxCell id="b18a_00D_Y3r3EYs8vVv-7" value="" style="endArrow=none;html=1;rounded=0;entryX=0;entryY=0.5;entryDx=0;entryDy=0;exitX=1;exitY=0.5;exitDx=0;exitDy=0;" edge="1" parent="1" target="b18a_00D_Y3r3EYs8vVv-5" source="_tTiy5UMwJFDo4vPP5Ci-3">
          <mxGeometry width="50" height="50" relative="1" as="geometry">
            <mxPoint x="750" y="600" as="sourcePoint" />
            <mxPoint x="490" y="530" as="targetPoint" />
          </mxGeometry>
        </mxCell>
        <mxCell id="b18a_00D_Y3r3EYs8vVv-8" value="posee" style="rhombus;whiteSpace=wrap;html=1;" vertex="1" parent="1">
          <mxGeometry x="985" y="410" width="90" height="50" as="geometry" />
        </mxCell>
        <mxCell id="b18a_00D_Y3r3EYs8vVv-9" value="" style="endArrow=none;html=1;rounded=0;entryX=0.5;entryY=0;entryDx=0;entryDy=0;exitX=0.5;exitY=1;exitDx=0;exitDy=0;" edge="1" parent="1" source="b18a_00D_Y3r3EYs8vVv-8" target="_tTiy5UMwJFDo4vPP5Ci-6">
          <mxGeometry width="50" height="50" relative="1" as="geometry">
            <mxPoint x="230" y="760" as="sourcePoint" />
            <mxPoint x="250" y="490" as="targetPoint" />
          </mxGeometry>
        </mxCell>
        <mxCell id="b18a_00D_Y3r3EYs8vVv-10" value="" style="endArrow=none;html=1;rounded=0;entryX=0.5;entryY=0;entryDx=0;entryDy=0;exitX=0.5;exitY=1;exitDx=0;exitDy=0;" edge="1" parent="1" target="b18a_00D_Y3r3EYs8vVv-8" source="_tTiy5UMwJFDo4vPP5Ci-4">
          <mxGeometry width="50" height="50" relative="1" as="geometry">
            <mxPoint x="500" y="600" as="sourcePoint" />
            <mxPoint x="240" y="530" as="targetPoint" />
          </mxGeometry>
        </mxCell>
        <mxCell id="b18a_00D_Y3r3EYs8vVv-11" value="tiene asociado" style="rhombus;whiteSpace=wrap;html=1;" vertex="1" parent="1">
          <mxGeometry x="645" y="505" width="110" height="50" as="geometry" />
        </mxCell>
        <mxCell id="b18a_00D_Y3r3EYs8vVv-12" value="" style="endArrow=none;html=1;rounded=0;entryX=1;entryY=0.5;entryDx=0;entryDy=0;exitX=0;exitY=0.5;exitDx=0;exitDy=0;" edge="1" parent="1" source="b18a_00D_Y3r3EYs8vVv-11" target="_tTiy5UMwJFDo4vPP5Ci-7">
          <mxGeometry width="50" height="50" relative="1" as="geometry">
            <mxPoint x="-70" y="855" as="sourcePoint" />
            <mxPoint x="-50" y="585" as="targetPoint" />
          </mxGeometry>
        </mxCell>
        <mxCell id="b18a_00D_Y3r3EYs8vVv-13" value="" style="endArrow=none;html=1;rounded=0;entryX=1;entryY=0.5;entryDx=0;entryDy=0;exitX=0;exitY=0.5;exitDx=0;exitDy=0;" edge="1" parent="1" target="b18a_00D_Y3r3EYs8vVv-11" source="_tTiy5UMwJFDo4vPP5Ci-6">
          <mxGeometry width="50" height="50" relative="1" as="geometry">
            <mxPoint x="200" y="695" as="sourcePoint" />
            <mxPoint x="-60" y="625" as="targetPoint" />
          </mxGeometry>
        </mxCell>
        <mxCell id="b18a_00D_Y3r3EYs8vVv-14" value="tiene" style="rhombus;whiteSpace=wrap;html=1;" vertex="1" parent="1">
          <mxGeometry x="325" y="410" width="90" height="50" as="geometry" />
        </mxCell>
        <mxCell id="b18a_00D_Y3r3EYs8vVv-15" value="" style="endArrow=none;html=1;rounded=0;exitX=0.5;exitY=1;exitDx=0;exitDy=0;entryX=0.5;entryY=0;entryDx=0;entryDy=0;" edge="1" parent="1" source="b18a_00D_Y3r3EYs8vVv-14" target="_tTiy5UMwJFDo4vPP5Ci-7">
          <mxGeometry width="50" height="50" relative="1" as="geometry">
            <mxPoint x="70" y="595" as="sourcePoint" />
            <mxPoint x="90" y="325" as="targetPoint" />
          </mxGeometry>
        </mxCell>
        <mxCell id="b18a_00D_Y3r3EYs8vVv-16" value="" style="endArrow=none;html=1;rounded=0;entryX=0.5;entryY=0;entryDx=0;entryDy=0;exitX=0.5;exitY=1;exitDx=0;exitDy=0;" edge="1" parent="1" target="b18a_00D_Y3r3EYs8vVv-14" source="_tTiy5UMwJFDo4vPP5Ci-2">
          <mxGeometry width="50" height="50" relative="1" as="geometry">
            <mxPoint x="340" y="435" as="sourcePoint" />
            <mxPoint x="80" y="365" as="targetPoint" />
          </mxGeometry>
        </mxCell>
        <mxCell id="b18a_00D_Y3r3EYs8vVv-18" value="" style="ellipse;whiteSpace=wrap;html=1;aspect=fixed;shadow=0;strokeColor=default;fillColor=#000000;" vertex="1" parent="1">
          <mxGeometry x="-20" y="70" width="15" height="15" as="geometry" />
        </mxCell>
        <mxCell id="b18a_00D_Y3r3EYs8vVv-21" value="" style="ellipse;whiteSpace=wrap;html=1;aspect=fixed;shadow=0;strokeColor=default;fillColor=#FFFFFF;" vertex="1" parent="1">
          <mxGeometry x="17.5" y="70" width="15" height="15" as="geometry" />
        </mxCell>
        <mxCell id="b18a_00D_Y3r3EYs8vVv-24" value="id" style="text;html=1;align=center;verticalAlign=middle;resizable=0;points=[];autosize=1;strokeColor=none;fillColor=none;" vertex="1" parent="1">
          <mxGeometry x="-30" y="45" width="30" height="30" as="geometry" />
        </mxCell>
        <mxCell id="b18a_00D_Y3r3EYs8vVv-26" value="nombre" style="text;html=1;align=center;verticalAlign=middle;resizable=0;points=[];autosize=1;strokeColor=none;fillColor=none;" vertex="1" parent="1">
          <mxGeometry x="-5" y="45" width="60" height="30" as="geometry" />
        </mxCell>
        <mxCell id="b18a_00D_Y3r3EYs8vVv-27" value="" style="ellipse;whiteSpace=wrap;html=1;aspect=fixed;shadow=0;strokeColor=default;fillColor=#FFFFFF;" vertex="1" parent="1">
          <mxGeometry x="57.5" y="70" width="15" height="15" as="geometry" />
        </mxCell>
        <mxCell id="b18a_00D_Y3r3EYs8vVv-28" value="email" style="text;html=1;align=center;verticalAlign=middle;resizable=0;points=[];autosize=1;strokeColor=none;fillColor=none;" vertex="1" parent="1">
          <mxGeometry x="40" y="45" width="50" height="30" as="geometry" />
        </mxCell>
        <mxCell id="b18a_00D_Y3r3EYs8vVv-31" value="" style="endArrow=none;html=1;rounded=0;entryX=0.5;entryY=1;entryDx=0;entryDy=0;exitX=0.602;exitY=0;exitDx=0;exitDy=0;exitPerimeter=0;" edge="1" parent="1" source="b18a_00D_Y3r3EYs8vVv-45" target="b18a_00D_Y3r3EYs8vVv-27">
          <mxGeometry width="50" height="50" relative="1" as="geometry">
            <mxPoint x="110" y="120" as="sourcePoint" />
            <mxPoint x="100" y="140" as="targetPoint" />
          </mxGeometry>
        </mxCell>
        <mxCell id="b18a_00D_Y3r3EYs8vVv-32" value="" style="endArrow=none;html=1;rounded=0;entryX=0.5;entryY=1;entryDx=0;entryDy=0;exitX=0.402;exitY=0;exitDx=0;exitDy=0;exitPerimeter=0;" edge="1" parent="1" source="b18a_00D_Y3r3EYs8vVv-45" target="b18a_00D_Y3r3EYs8vVv-21">
          <mxGeometry width="50" height="50" relative="1" as="geometry">
            <mxPoint x="40" y="130" as="sourcePoint" />
            <mxPoint x="103" y="95" as="targetPoint" />
          </mxGeometry>
        </mxCell>
        <mxCell id="b18a_00D_Y3r3EYs8vVv-33" value="" style="endArrow=none;html=1;rounded=0;entryX=0.5;entryY=1;entryDx=0;entryDy=0;exitX=0.202;exitY=0;exitDx=0;exitDy=0;exitPerimeter=0;" edge="1" parent="1" source="b18a_00D_Y3r3EYs8vVv-45" target="b18a_00D_Y3r3EYs8vVv-18">
          <mxGeometry width="50" height="50" relative="1" as="geometry">
            <mxPoint x="-20" y="130" as="sourcePoint" />
            <mxPoint x="113" y="105" as="targetPoint" />
          </mxGeometry>
        </mxCell>
        <mxCell id="b18a_00D_Y3r3EYs8vVv-34" value="" style="ellipse;whiteSpace=wrap;html=1;aspect=fixed;shadow=0;strokeColor=default;fillColor=#000000;" vertex="1" parent="1">
          <mxGeometry x="650" y="255" width="15" height="15" as="geometry" />
        </mxCell>
        <mxCell id="b18a_00D_Y3r3EYs8vVv-35" value="" style="ellipse;whiteSpace=wrap;html=1;aspect=fixed;shadow=0;strokeColor=default;fillColor=#FFFFFF;" vertex="1" parent="1">
          <mxGeometry x="732.5" y="255" width="15" height="15" as="geometry" />
        </mxCell>
        <mxCell id="b18a_00D_Y3r3EYs8vVv-36" value="id" style="text;html=1;align=center;verticalAlign=middle;resizable=0;points=[];autosize=1;strokeColor=none;fillColor=none;" vertex="1" parent="1">
          <mxGeometry x="640" y="230" width="30" height="30" as="geometry" />
        </mxCell>
        <mxCell id="b18a_00D_Y3r3EYs8vVv-37" value="nombre" style="text;html=1;align=center;verticalAlign=middle;resizable=0;points=[];autosize=1;strokeColor=none;fillColor=none;" vertex="1" parent="1">
          <mxGeometry x="710" y="230" width="60" height="30" as="geometry" />
        </mxCell>
        <mxCell id="b18a_00D_Y3r3EYs8vVv-41" value="" style="endArrow=none;html=1;rounded=0;entryX=0.5;entryY=1;entryDx=0;entryDy=0;exitX=0.75;exitY=0;exitDx=0;exitDy=0;" edge="1" parent="1" target="b18a_00D_Y3r3EYs8vVv-35" source="_tTiy5UMwJFDo4vPP5Ci-3">
          <mxGeometry width="50" height="50" relative="1" as="geometry">
            <mxPoint x="680" y="300" as="sourcePoint" />
            <mxPoint x="743" y="255" as="targetPoint" />
          </mxGeometry>
        </mxCell>
        <mxCell id="b18a_00D_Y3r3EYs8vVv-42" value="" style="endArrow=none;html=1;rounded=0;entryX=0.5;entryY=1;entryDx=0;entryDy=0;exitX=0.25;exitY=0;exitDx=0;exitDy=0;" edge="1" parent="1" target="b18a_00D_Y3r3EYs8vVv-34" source="_tTiy5UMwJFDo4vPP5Ci-3">
          <mxGeometry width="50" height="50" relative="1" as="geometry">
            <mxPoint x="655" y="300" as="sourcePoint" />
            <mxPoint x="753" y="265" as="targetPoint" />
          </mxGeometry>
        </mxCell>
        <mxCell id="b18a_00D_Y3r3EYs8vVv-45" value="Usuario" style="rounded=1;whiteSpace=wrap;html=1;" vertex="1" parent="1">
          <mxGeometry x="-10" y="140" width="100" height="40" as="geometry" />
        </mxCell>
        <mxCell id="b18a_00D_Y3r3EYs8vVv-46" value="Aula" style="rounded=1;whiteSpace=wrap;html=1;" vertex="1" parent="1">
          <mxGeometry x="-10" y="325" width="100" height="40" as="geometry" />
        </mxCell>
        <mxCell id="b18a_00D_Y3r3EYs8vVv-50" value="agrupa a" style="rhombus;whiteSpace=wrap;html=1;" vertex="1" parent="1">
          <mxGeometry x="160" y="320" width="90" height="50" as="geometry" />
        </mxCell>
        <mxCell id="b18a_00D_Y3r3EYs8vVv-51" value="" style="endArrow=none;html=1;rounded=0;exitX=0;exitY=0.5;exitDx=0;exitDy=0;entryX=1;entryY=0.5;entryDx=0;entryDy=0;" edge="1" parent="1" source="b18a_00D_Y3r3EYs8vVv-50" target="b18a_00D_Y3r3EYs8vVv-46">
          <mxGeometry width="50" height="50" relative="1" as="geometry">
            <mxPoint x="50" y="625" as="sourcePoint" />
            <mxPoint x="130" y="320" as="targetPoint" />
          </mxGeometry>
        </mxCell>
        <mxCell id="b18a_00D_Y3r3EYs8vVv-52" value="" style="endArrow=none;html=1;rounded=0;entryX=1;entryY=0.5;entryDx=0;entryDy=0;exitX=0;exitY=0.5;exitDx=0;exitDy=0;" edge="1" parent="1" target="b18a_00D_Y3r3EYs8vVv-50" source="_tTiy5UMwJFDo4vPP5Ci-2">
          <mxGeometry width="50" height="50" relative="1" as="geometry">
            <mxPoint x="300" y="320" as="sourcePoint" />
            <mxPoint x="60" y="395" as="targetPoint" />
          </mxGeometry>
        </mxCell>
        <mxCell id="b18a_00D_Y3r3EYs8vVv-53" value="crea" style="rhombus;whiteSpace=wrap;html=1;" vertex="1" parent="1">
          <mxGeometry x="-5" y="225" width="90" height="50" as="geometry" />
        </mxCell>
        <mxCell id="b18a_00D_Y3r3EYs8vVv-54" value="" style="endArrow=none;html=1;rounded=0;exitX=0.5;exitY=1;exitDx=0;exitDy=0;entryX=0.5;entryY=0;entryDx=0;entryDy=0;" edge="1" parent="1" source="b18a_00D_Y3r3EYs8vVv-53" target="b18a_00D_Y3r3EYs8vVv-46">
          <mxGeometry width="50" height="50" relative="1" as="geometry">
            <mxPoint x="-260" y="410" as="sourcePoint" />
            <mxPoint y="300" as="targetPoint" />
          </mxGeometry>
        </mxCell>
        <mxCell id="b18a_00D_Y3r3EYs8vVv-55" value="" style="endArrow=none;html=1;rounded=0;entryX=0.5;entryY=0;entryDx=0;entryDy=0;exitX=0.5;exitY=1;exitDx=0;exitDy=0;" edge="1" parent="1" target="b18a_00D_Y3r3EYs8vVv-53" source="b18a_00D_Y3r3EYs8vVv-45">
          <mxGeometry width="50" height="50" relative="1" as="geometry">
            <mxPoint x="40" y="180" as="sourcePoint" />
            <mxPoint x="-250" y="180" as="targetPoint" />
          </mxGeometry>
        </mxCell>
        <mxCell id="b18a_00D_Y3r3EYs8vVv-56" value="1..1" style="text;html=1;align=center;verticalAlign=middle;resizable=0;points=[];autosize=1;strokeColor=none;fillColor=none;" vertex="1" parent="1">
          <mxGeometry x="40" y="178" width="40" height="30" as="geometry" />
        </mxCell>
        <mxCell id="b18a_00D_Y3r3EYs8vVv-57" value="0..n" style="text;html=1;align=center;verticalAlign=middle;resizable=0;points=[];autosize=1;strokeColor=none;fillColor=none;" vertex="1" parent="1">
          <mxGeometry x="40" y="295" width="40" height="30" as="geometry" />
        </mxCell>
        <mxCell id="b18a_00D_Y3r3EYs8vVv-58" value="0..n" style="text;html=1;align=center;verticalAlign=middle;resizable=0;points=[];autosize=1;strokeColor=none;fillColor=none;" vertex="1" parent="1">
          <mxGeometry x="90" y="320" width="40" height="30" as="geometry" />
        </mxCell>
        <mxCell id="b18a_00D_Y3r3EYs8vVv-59" value="0..n" style="text;html=1;align=center;verticalAlign=middle;resizable=0;points=[];autosize=1;strokeColor=none;fillColor=none;" vertex="1" parent="1">
          <mxGeometry x="280" y="320" width="40" height="30" as="geometry" />
        </mxCell>
        <mxCell id="b18a_00D_Y3r3EYs8vVv-60" value="1..1" style="text;html=1;align=center;verticalAlign=middle;resizable=0;points=[];autosize=1;strokeColor=none;fillColor=none;" vertex="1" parent="1">
          <mxGeometry x="610" y="320" width="40" height="30" as="geometry" />
        </mxCell>
        <mxCell id="b18a_00D_Y3r3EYs8vVv-61" value="0..n" style="text;html=1;align=center;verticalAlign=middle;resizable=0;points=[];autosize=1;strokeColor=none;fillColor=none;" vertex="1" parent="1">
          <mxGeometry x="420" y="320" width="40" height="30" as="geometry" />
        </mxCell>
        <mxCell id="b18a_00D_Y3r3EYs8vVv-62" value="1..1" style="text;html=1;align=center;verticalAlign=middle;resizable=0;points=[];autosize=1;strokeColor=none;fillColor=none;" vertex="1" parent="1">
          <mxGeometry x="750" y="320" width="40" height="30" as="geometry" />
        </mxCell>
        <mxCell id="b18a_00D_Y3r3EYs8vVv-63" value="0..n" style="text;html=1;align=center;verticalAlign=middle;resizable=0;points=[];autosize=1;strokeColor=none;fillColor=none;" vertex="1" parent="1">
          <mxGeometry x="940" y="320" width="40" height="30" as="geometry" />
        </mxCell>
        <mxCell id="b18a_00D_Y3r3EYs8vVv-64" value="1..1" style="text;html=1;align=center;verticalAlign=middle;resizable=0;points=[];autosize=1;strokeColor=none;fillColor=none;" vertex="1" parent="1">
          <mxGeometry x="1030" y="365" width="40" height="30" as="geometry" />
        </mxCell>
        <mxCell id="b18a_00D_Y3r3EYs8vVv-65" value="0..n" style="text;html=1;align=center;verticalAlign=middle;resizable=0;points=[];autosize=1;strokeColor=none;fillColor=none;" vertex="1" parent="1">
          <mxGeometry x="1030" y="480" width="40" height="30" as="geometry" />
        </mxCell>
        <mxCell id="b18a_00D_Y3r3EYs8vVv-66" value="1..1" style="text;html=1;align=center;verticalAlign=middle;resizable=0;points=[];autosize=1;strokeColor=none;fillColor=none;" vertex="1" parent="1">
          <mxGeometry x="940" y="525" width="40" height="30" as="geometry" />
        </mxCell>
        <mxCell id="b18a_00D_Y3r3EYs8vVv-67" value="0..n" style="text;html=1;align=center;verticalAlign=middle;resizable=0;points=[];autosize=1;strokeColor=none;fillColor=none;" vertex="1" parent="1">
          <mxGeometry x="420" y="525" width="40" height="30" as="geometry" />
        </mxCell>
        <mxCell id="b18a_00D_Y3r3EYs8vVv-79" value="" style="ellipse;whiteSpace=wrap;html=1;aspect=fixed;shadow=0;strokeColor=default;fillColor=#FFFFFF;" vertex="1" parent="1">
          <mxGeometry x="90" y="70" width="15" height="15" as="geometry" />
        </mxCell>
        <mxCell id="b18a_00D_Y3r3EYs8vVv-80" value="password" style="text;html=1;align=center;verticalAlign=middle;resizable=0;points=[];autosize=1;strokeColor=none;fillColor=none;" vertex="1" parent="1">
          <mxGeometry x="75" y="45" width="70" height="30" as="geometry" />
        </mxCell>
        <mxCell id="b18a_00D_Y3r3EYs8vVv-81" value="" style="endArrow=none;html=1;rounded=0;entryX=0.5;entryY=1;entryDx=0;entryDy=0;exitX=0.795;exitY=0;exitDx=0;exitDy=0;exitPerimeter=0;" edge="1" parent="1" target="b18a_00D_Y3r3EYs8vVv-79" source="b18a_00D_Y3r3EYs8vVv-45">
          <mxGeometry width="50" height="50" relative="1" as="geometry">
            <mxPoint x="82.5" y="140" as="sourcePoint" />
            <mxPoint x="132.5" y="140" as="targetPoint" />
          </mxGeometry>
        </mxCell>
        <mxCell id="b18a_00D_Y3r3EYs8vVv-82" value="" style="ellipse;whiteSpace=wrap;html=1;aspect=fixed;shadow=0;strokeColor=default;fillColor=#000000;" vertex="1" parent="1">
          <mxGeometry x="-10" y="415" width="15" height="15" as="geometry" />
        </mxCell>
        <mxCell id="b18a_00D_Y3r3EYs8vVv-83" value="" style="ellipse;whiteSpace=wrap;html=1;aspect=fixed;shadow=0;strokeColor=default;fillColor=#FFFFFF;" vertex="1" parent="1">
          <mxGeometry x="70" y="415" width="15" height="15" as="geometry" />
        </mxCell>
        <mxCell id="b18a_00D_Y3r3EYs8vVv-84" value="id" style="text;html=1;align=center;verticalAlign=middle;resizable=0;points=[];autosize=1;strokeColor=none;fillColor=none;" vertex="1" parent="1">
          <mxGeometry x="-25" y="430" width="30" height="30" as="geometry" />
        </mxCell>
        <mxCell id="b18a_00D_Y3r3EYs8vVv-85" value="nombre" style="text;html=1;align=center;verticalAlign=middle;resizable=0;points=[];autosize=1;strokeColor=none;fillColor=none;" vertex="1" parent="1">
          <mxGeometry x="55" y="430" width="60" height="30" as="geometry" />
        </mxCell>
        <mxCell id="b18a_00D_Y3r3EYs8vVv-86" value="" style="endArrow=none;html=1;rounded=0;entryX=0.75;entryY=1;entryDx=0;entryDy=0;exitX=0.5;exitY=0;exitDx=0;exitDy=0;" edge="1" parent="1" target="b18a_00D_Y3r3EYs8vVv-46" source="b18a_00D_Y3r3EYs8vVv-83">
          <mxGeometry width="50" height="50" relative="1" as="geometry">
            <mxPoint x="53" y="450" as="sourcePoint" />
            <mxPoint x="80" y="380" as="targetPoint" />
          </mxGeometry>
        </mxCell>
        <mxCell id="b18a_00D_Y3r3EYs8vVv-87" value="" style="endArrow=none;html=1;rounded=0;entryX=0.25;entryY=1;entryDx=0;entryDy=0;exitX=0.5;exitY=0;exitDx=0;exitDy=0;" edge="1" parent="1" target="b18a_00D_Y3r3EYs8vVv-46" source="b18a_00D_Y3r3EYs8vVv-82">
          <mxGeometry width="50" height="50" relative="1" as="geometry">
            <mxPoint y="420" as="sourcePoint" />
            <mxPoint x="-10" y="390" as="targetPoint" />
          </mxGeometry>
        </mxCell>
        <mxCell id="b18a_00D_Y3r3EYs8vVv-89" value="" style="ellipse;whiteSpace=wrap;html=1;aspect=fixed;shadow=0;strokeColor=default;fillColor=#000000;" vertex="1" parent="1">
          <mxGeometry x="315" y="255" width="15" height="15" as="geometry" />
        </mxCell>
        <mxCell id="b18a_00D_Y3r3EYs8vVv-90" value="" style="ellipse;whiteSpace=wrap;html=1;aspect=fixed;shadow=0;strokeColor=default;fillColor=#FFFFFF;" vertex="1" parent="1">
          <mxGeometry x="362.5" y="255" width="15" height="15" as="geometry" />
        </mxCell>
        <mxCell id="b18a_00D_Y3r3EYs8vVv-91" value="id" style="text;html=1;align=center;verticalAlign=middle;resizable=0;points=[];autosize=1;strokeColor=none;fillColor=none;" vertex="1" parent="1">
          <mxGeometry x="305" y="230" width="30" height="30" as="geometry" />
        </mxCell>
        <mxCell id="b18a_00D_Y3r3EYs8vVv-92" value="nombre" style="text;html=1;align=center;verticalAlign=middle;resizable=0;points=[];autosize=1;strokeColor=none;fillColor=none;" vertex="1" parent="1">
          <mxGeometry x="340" y="230" width="60" height="30" as="geometry" />
        </mxCell>
        <mxCell id="b18a_00D_Y3r3EYs8vVv-93" value="" style="endArrow=none;html=1;rounded=0;entryX=0.5;entryY=1;entryDx=0;entryDy=0;exitX=0.5;exitY=0;exitDx=0;exitDy=0;" edge="1" parent="1" target="b18a_00D_Y3r3EYs8vVv-90" source="_tTiy5UMwJFDo4vPP5Ci-2">
          <mxGeometry width="50" height="50" relative="1" as="geometry">
            <mxPoint x="390" y="325" as="sourcePoint" />
            <mxPoint x="408" y="255" as="targetPoint" />
          </mxGeometry>
        </mxCell>
        <mxCell id="b18a_00D_Y3r3EYs8vVv-94" value="" style="endArrow=none;html=1;rounded=0;entryX=0.5;entryY=1;entryDx=0;entryDy=0;exitX=0.25;exitY=0;exitDx=0;exitDy=0;" edge="1" parent="1" target="b18a_00D_Y3r3EYs8vVv-89">
          <mxGeometry width="50" height="50" relative="1" as="geometry">
            <mxPoint x="340" y="325" as="sourcePoint" />
            <mxPoint x="418" y="265" as="targetPoint" />
          </mxGeometry>
        </mxCell>
        <mxCell id="b18a_00D_Y3r3EYs8vVv-95" value="" style="ellipse;whiteSpace=wrap;html=1;aspect=fixed;shadow=0;strokeColor=default;fillColor=#FFFFFF;" vertex="1" parent="1">
          <mxGeometry x="406.5" y="255" width="15" height="15" as="geometry" />
        </mxCell>
        <mxCell id="b18a_00D_Y3r3EYs8vVv-96" value="edad" style="text;html=1;align=center;verticalAlign=middle;resizable=0;points=[];autosize=1;strokeColor=none;fillColor=none;" vertex="1" parent="1">
          <mxGeometry x="389" y="230" width="50" height="30" as="geometry" />
        </mxCell>
        <mxCell id="b18a_00D_Y3r3EYs8vVv-97" value="" style="endArrow=none;html=1;rounded=0;entryX=0.5;entryY=1;entryDx=0;entryDy=0;exitX=0.75;exitY=0;exitDx=0;exitDy=0;" edge="1" parent="1" target="b18a_00D_Y3r3EYs8vVv-95" source="_tTiy5UMwJFDo4vPP5Ci-2">
          <mxGeometry width="50" height="50" relative="1" as="geometry">
            <mxPoint x="420" y="320" as="sourcePoint" />
            <mxPoint x="458" y="250" as="targetPoint" />
          </mxGeometry>
        </mxCell>
        <mxCell id="b18a_00D_Y3r3EYs8vVv-104" value="" style="ellipse;whiteSpace=wrap;html=1;aspect=fixed;shadow=0;strokeColor=default;fillColor=#000000;" vertex="1" parent="1">
          <mxGeometry x="290" y="600" width="15" height="15" as="geometry" />
        </mxCell>
        <mxCell id="b18a_00D_Y3r3EYs8vVv-105" value="" style="ellipse;whiteSpace=wrap;html=1;aspect=fixed;shadow=0;strokeColor=default;fillColor=#FFFFFF;" vertex="1" parent="1">
          <mxGeometry x="325" y="600" width="15" height="15" as="geometry" />
        </mxCell>
        <mxCell id="b18a_00D_Y3r3EYs8vVv-106" value="id" style="text;html=1;align=center;verticalAlign=middle;resizable=0;points=[];autosize=1;strokeColor=none;fillColor=none;" vertex="1" parent="1">
          <mxGeometry x="260" y="592.5" width="30" height="30" as="geometry" />
        </mxCell>
        <mxCell id="b18a_00D_Y3r3EYs8vVv-107" value="respuesta" style="text;html=1;align=center;verticalAlign=middle;resizable=0;points=[];autosize=1;strokeColor=none;fillColor=none;" vertex="1" parent="1">
          <mxGeometry x="270" y="610" width="80" height="30" as="geometry" />
        </mxCell>
        <mxCell id="b18a_00D_Y3r3EYs8vVv-108" value="" style="endArrow=none;html=1;rounded=0;entryX=0.25;entryY=1;entryDx=0;entryDy=0;exitX=0.5;exitY=0;exitDx=0;exitDy=0;" edge="1" parent="1" source="b18a_00D_Y3r3EYs8vVv-105" target="_tTiy5UMwJFDo4vPP5Ci-7">
          <mxGeometry width="50" height="50" relative="1" as="geometry">
            <mxPoint x="368" y="635" as="sourcePoint" />
            <mxPoint x="380" y="550" as="targetPoint" />
          </mxGeometry>
        </mxCell>
        <mxCell id="b18a_00D_Y3r3EYs8vVv-109" value="" style="endArrow=none;html=1;rounded=0;entryX=0.25;entryY=1;entryDx=0;entryDy=0;exitX=0.5;exitY=0;exitDx=0;exitDy=0;" edge="1" parent="1" source="b18a_00D_Y3r3EYs8vVv-104">
          <mxGeometry width="50" height="50" relative="1" as="geometry">
            <mxPoint x="315" y="605" as="sourcePoint" />
            <mxPoint x="330" y="550" as="targetPoint" />
          </mxGeometry>
        </mxCell>
        <mxCell id="b18a_00D_Y3r3EYs8vVv-119" value="" style="ellipse;whiteSpace=wrap;html=1;aspect=fixed;shadow=0;strokeColor=default;fillColor=#FFFFFF;" vertex="1" parent="1">
          <mxGeometry x="362.5" y="600" width="15" height="15" as="geometry" />
        </mxCell>
        <mxCell id="b18a_00D_Y3r3EYs8vVv-120" value="segundos" style="text;html=1;align=center;verticalAlign=middle;resizable=0;points=[];autosize=1;strokeColor=none;fillColor=none;" vertex="1" parent="1">
          <mxGeometry x="334" y="610" width="80" height="30" as="geometry" />
        </mxCell>
        <mxCell id="b18a_00D_Y3r3EYs8vVv-121" value="" style="endArrow=none;html=1;rounded=0;entryX=0.5;entryY=1;entryDx=0;entryDy=0;exitX=0.5;exitY=0;exitDx=0;exitDy=0;" edge="1" parent="1" source="b18a_00D_Y3r3EYs8vVv-119" target="_tTiy5UMwJFDo4vPP5Ci-7">
          <mxGeometry width="50" height="50" relative="1" as="geometry">
            <mxPoint x="408" y="675" as="sourcePoint" />
            <mxPoint x="420" y="590" as="targetPoint" />
          </mxGeometry>
        </mxCell>
        <mxCell id="b18a_00D_Y3r3EYs8vVv-122" value="" style="ellipse;whiteSpace=wrap;html=1;aspect=fixed;shadow=0;strokeColor=default;fillColor=#FFFFFF;" vertex="1" parent="1">
          <mxGeometry x="406.5" y="600" width="15" height="15" as="geometry" />
        </mxCell>
        <mxCell id="b18a_00D_Y3r3EYs8vVv-123" value="esCorrecta?" style="text;html=1;align=center;verticalAlign=middle;resizable=0;points=[];autosize=1;strokeColor=none;fillColor=none;" vertex="1" parent="1">
          <mxGeometry x="395" y="610" width="90" height="30" as="geometry" />
        </mxCell>
        <mxCell id="b18a_00D_Y3r3EYs8vVv-124" value="" style="endArrow=none;html=1;rounded=0;entryX=0.75;entryY=1;entryDx=0;entryDy=0;exitX=0.5;exitY=0;exitDx=0;exitDy=0;" edge="1" parent="1" source="b18a_00D_Y3r3EYs8vVv-122" target="_tTiy5UMwJFDo4vPP5Ci-7">
          <mxGeometry width="50" height="50" relative="1" as="geometry">
            <mxPoint x="418" y="685" as="sourcePoint" />
            <mxPoint x="430" y="600" as="targetPoint" />
          </mxGeometry>
        </mxCell>
        <mxCell id="b18a_00D_Y3r3EYs8vVv-125" value="" style="ellipse;whiteSpace=wrap;html=1;aspect=fixed;shadow=0;strokeColor=default;fillColor=#FFFFFF;" vertex="1" parent="1">
          <mxGeometry x="445" y="600" width="15" height="15" as="geometry" />
        </mxCell>
        <mxCell id="b18a_00D_Y3r3EYs8vVv-126" value="fecha" style="text;html=1;align=center;verticalAlign=middle;resizable=0;points=[];autosize=1;strokeColor=none;fillColor=none;" vertex="1" parent="1">
          <mxGeometry x="460" y="592.5" width="50" height="30" as="geometry" />
        </mxCell>
        <mxCell id="b18a_00D_Y3r3EYs8vVv-127" value="" style="endArrow=none;html=1;rounded=0;entryX=1;entryY=1;entryDx=0;entryDy=0;exitX=0.5;exitY=0;exitDx=0;exitDy=0;" edge="1" parent="1" source="b18a_00D_Y3r3EYs8vVv-125" target="_tTiy5UMwJFDo4vPP5Ci-7">
          <mxGeometry width="50" height="50" relative="1" as="geometry">
            <mxPoint x="468" y="665" as="sourcePoint" />
            <mxPoint x="460" y="520" as="targetPoint" />
          </mxGeometry>
        </mxCell>
        <mxCell id="b18a_00D_Y3r3EYs8vVv-128" value="" style="ellipse;whiteSpace=wrap;html=1;aspect=fixed;shadow=0;strokeColor=default;fillColor=#000000;" vertex="1" parent="1">
          <mxGeometry x="985" y="600" width="15" height="15" as="geometry" />
        </mxCell>
        <mxCell id="b18a_00D_Y3r3EYs8vVv-129" value="" style="ellipse;whiteSpace=wrap;html=1;aspect=fixed;shadow=0;strokeColor=default;fillColor=#FFFFFF;" vertex="1" parent="1">
          <mxGeometry x="1070" y="600" width="15" height="15" as="geometry" />
        </mxCell>
        <mxCell id="b18a_00D_Y3r3EYs8vVv-130" value="id" style="text;html=1;align=center;verticalAlign=middle;resizable=0;points=[];autosize=1;strokeColor=none;fillColor=none;" vertex="1" parent="1">
          <mxGeometry x="970" y="615" width="30" height="30" as="geometry" />
        </mxCell>
        <mxCell id="b18a_00D_Y3r3EYs8vVv-131" value="texto" style="text;html=1;align=center;verticalAlign=middle;resizable=0;points=[];autosize=1;strokeColor=none;fillColor=none;" vertex="1" parent="1">
          <mxGeometry x="1060" y="615" width="50" height="30" as="geometry" />
        </mxCell>
        <mxCell id="b18a_00D_Y3r3EYs8vVv-132" value="" style="endArrow=none;html=1;rounded=0;entryX=0.75;entryY=1;entryDx=0;entryDy=0;exitX=0.5;exitY=0;exitDx=0;exitDy=0;" edge="1" parent="1" source="b18a_00D_Y3r3EYs8vVv-129" target="_tTiy5UMwJFDo4vPP5Ci-6">
          <mxGeometry width="50" height="50" relative="1" as="geometry">
            <mxPoint x="1038" y="635" as="sourcePoint" />
            <mxPoint x="1050" y="550" as="targetPoint" />
          </mxGeometry>
        </mxCell>
        <mxCell id="b18a_00D_Y3r3EYs8vVv-133" value="" style="endArrow=none;html=1;rounded=0;entryX=0.25;entryY=1;entryDx=0;entryDy=0;exitX=0.5;exitY=0;exitDx=0;exitDy=0;" edge="1" parent="1" source="b18a_00D_Y3r3EYs8vVv-128" target="_tTiy5UMwJFDo4vPP5Ci-6">
          <mxGeometry width="50" height="50" relative="1" as="geometry">
            <mxPoint x="985" y="605" as="sourcePoint" />
            <mxPoint x="1000" y="550" as="targetPoint" />
          </mxGeometry>
        </mxCell>
        <mxCell id="b18a_00D_Y3r3EYs8vVv-139" value="" style="ellipse;whiteSpace=wrap;html=1;aspect=fixed;shadow=0;strokeColor=default;fillColor=#000000;" vertex="1" parent="1">
          <mxGeometry x="975" y="255" width="15" height="15" as="geometry" />
        </mxCell>
        <mxCell id="b18a_00D_Y3r3EYs8vVv-140" value="" style="ellipse;whiteSpace=wrap;html=1;aspect=fixed;shadow=0;strokeColor=default;fillColor=#FFFFFF;" vertex="1" parent="1">
          <mxGeometry x="1022.5" y="255" width="15" height="15" as="geometry" />
        </mxCell>
        <mxCell id="b18a_00D_Y3r3EYs8vVv-141" value="id" style="text;html=1;align=center;verticalAlign=middle;resizable=0;points=[];autosize=1;strokeColor=none;fillColor=none;" vertex="1" parent="1">
          <mxGeometry x="965" y="230" width="30" height="30" as="geometry" />
        </mxCell>
        <mxCell id="b18a_00D_Y3r3EYs8vVv-142" value="nombre" style="text;html=1;align=center;verticalAlign=middle;resizable=0;points=[];autosize=1;strokeColor=none;fillColor=none;" vertex="1" parent="1">
          <mxGeometry x="1000" y="230" width="60" height="30" as="geometry" />
        </mxCell>
        <mxCell id="b18a_00D_Y3r3EYs8vVv-143" value="" style="endArrow=none;html=1;rounded=0;entryX=0.5;entryY=1;entryDx=0;entryDy=0;exitX=0.5;exitY=0;exitDx=0;exitDy=0;" edge="1" parent="1" target="b18a_00D_Y3r3EYs8vVv-140" source="_tTiy5UMwJFDo4vPP5Ci-4">
          <mxGeometry width="50" height="50" relative="1" as="geometry">
            <mxPoint x="1050" y="325" as="sourcePoint" />
            <mxPoint x="1068" y="255" as="targetPoint" />
          </mxGeometry>
        </mxCell>
        <mxCell id="b18a_00D_Y3r3EYs8vVv-144" value="" style="endArrow=none;html=1;rounded=0;entryX=0.5;entryY=1;entryDx=0;entryDy=0;exitX=0.25;exitY=0;exitDx=0;exitDy=0;" edge="1" parent="1" target="b18a_00D_Y3r3EYs8vVv-139" source="_tTiy5UMwJFDo4vPP5Ci-4">
          <mxGeometry width="50" height="50" relative="1" as="geometry">
            <mxPoint x="1000" y="325" as="sourcePoint" />
            <mxPoint x="1078" y="265" as="targetPoint" />
          </mxGeometry>
        </mxCell>
        <mxCell id="b18a_00D_Y3r3EYs8vVv-145" value="" style="ellipse;whiteSpace=wrap;html=1;aspect=fixed;shadow=0;strokeColor=default;fillColor=#FFFFFF;" vertex="1" parent="1">
          <mxGeometry x="1077.5" y="255" width="15" height="15" as="geometry" />
        </mxCell>
        <mxCell id="b18a_00D_Y3r3EYs8vVv-146" value="numero" style="text;html=1;align=center;verticalAlign=middle;resizable=0;points=[];autosize=1;strokeColor=none;fillColor=none;" vertex="1" parent="1">
          <mxGeometry x="1055" y="230" width="60" height="30" as="geometry" />
        </mxCell>
        <mxCell id="b18a_00D_Y3r3EYs8vVv-147" value="" style="endArrow=none;html=1;rounded=0;entryX=0.5;entryY=1;entryDx=0;entryDy=0;exitX=0.75;exitY=0;exitDx=0;exitDy=0;" edge="1" parent="1" target="b18a_00D_Y3r3EYs8vVv-145" source="_tTiy5UMwJFDo4vPP5Ci-4">
          <mxGeometry width="50" height="50" relative="1" as="geometry">
            <mxPoint x="1105" y="310" as="sourcePoint" />
            <mxPoint x="1143" y="240" as="targetPoint" />
          </mxGeometry>
        </mxCell>
        <mxCell id="b18a_00D_Y3r3EYs8vVv-148" value="1..1" style="text;html=1;align=center;verticalAlign=middle;resizable=0;points=[];autosize=1;strokeColor=none;fillColor=none;" vertex="1" parent="1">
          <mxGeometry x="337.5" y="365" width="40" height="30" as="geometry" />
        </mxCell>
        <mxCell id="b18a_00D_Y3r3EYs8vVv-149" value="0..n" style="text;html=1;align=center;verticalAlign=middle;resizable=0;points=[];autosize=1;strokeColor=none;fillColor=none;" vertex="1" parent="1">
          <mxGeometry x="335" y="480" width="40" height="30" as="geometry" />
        </mxCell>
      </root>
    </mxGraphModel>
  </diagram>
  <diagram id="TBEZq_787KhKAzLKGRPA" name="C1">
    <mxGraphModel dx="1332" dy="491" grid="1" gridSize="10" guides="1" tooltips="1" connect="1" arrows="1" fold="1" page="1" pageScale="1" pageWidth="827" pageHeight="1169" math="0" shadow="0">
      <root>
        <mxCell id="0" />
        <mxCell id="1" parent="0" />
        <mxCell id="0XXCoAOK3yvAvz01pdHb-1" value="" style="shape=umlActor;verticalLabelPosition=bottom;verticalAlign=top;html=1;outlineConnect=0;" parent="1" vertex="1">
          <mxGeometry x="453.5" y="190" width="30" height="60" as="geometry" />
        </mxCell>
        <mxCell id="0XXCoAOK3yvAvz01pdHb-2" value="&lt;div&gt;&lt;br&gt;&lt;/div&gt;" style="shape=umlActor;verticalLabelPosition=bottom;verticalAlign=top;html=1;outlineConnect=0;" parent="1" vertex="1">
          <mxGeometry x="110" y="390" width="30" height="64" as="geometry" />
        </mxCell>
        <mxCell id="0XXCoAOK3yvAvz01pdHb-6" value="&lt;b&gt;Sistema de recopilación y visualización de respuestas&lt;/b&gt;&lt;div&gt;&lt;b&gt;[Sistema de Software]&lt;/b&gt;&lt;/div&gt;&lt;div&gt;&lt;b&gt;&lt;br&gt;&lt;/b&gt;&lt;/div&gt;&lt;div&gt;Guarda la respuestas e información relevante de los estudiantes y las representa en un dashboard&lt;/div&gt;" style="rounded=1;whiteSpace=wrap;html=1;" parent="1" vertex="1">
          <mxGeometry x="367" y="425" width="203" height="115" as="geometry" />
        </mxCell>
        <mxCell id="qyKUGXBg0lWfFhIb5KEC-1" style="edgeStyle=orthogonalEdgeStyle;rounded=0;orthogonalLoop=1;jettySize=auto;html=1;entryX=0;entryY=0.5;entryDx=0;entryDy=0;dashed=1;" parent="1" source="0XXCoAOK3yvAvz01pdHb-8" target="0XXCoAOK3yvAvz01pdHb-6" edge="1">
          <mxGeometry relative="1" as="geometry" />
        </mxCell>
        <mxCell id="zxSzMhtRfJ17eT3d4YcE-1" value="registra estudiantes y puntajes" style="edgeLabel;html=1;align=center;verticalAlign=middle;resizable=0;points=[];" vertex="1" connectable="0" parent="qyKUGXBg0lWfFhIb5KEC-1">
          <mxGeometry x="-0.3313" y="3" relative="1" as="geometry">
            <mxPoint x="24" y="-9" as="offset" />
          </mxGeometry>
        </mxCell>
        <mxCell id="0XXCoAOK3yvAvz01pdHb-8" value="&lt;b&gt;Estudiante&lt;/b&gt;&lt;div&gt;&lt;b&gt;[Persona]&lt;br&gt;&lt;/b&gt;&lt;div&gt;&lt;br&gt;&lt;/div&gt;&lt;div&gt;Usuarios de app externa&lt;/div&gt;&lt;/div&gt;" style="rounded=1;whiteSpace=wrap;html=1;" parent="1" vertex="1">
          <mxGeometry x="50" y="450" width="150" height="64" as="geometry" />
        </mxCell>
        <mxCell id="qyKUGXBg0lWfFhIb5KEC-2" style="edgeStyle=orthogonalEdgeStyle;rounded=0;orthogonalLoop=1;jettySize=auto;html=1;exitX=0.5;exitY=1;exitDx=0;exitDy=0;entryX=0.5;entryY=0;entryDx=0;entryDy=0;dashed=1;" parent="1" source="WokbYbhAWWS723QjifpL-2" target="0XXCoAOK3yvAvz01pdHb-6" edge="1">
          <mxGeometry relative="1" as="geometry" />
        </mxCell>
        <mxCell id="zxSzMhtRfJ17eT3d4YcE-2" value="ve estudiantes y puntaje" style="edgeLabel;html=1;align=center;verticalAlign=middle;resizable=0;points=[];" vertex="1" connectable="0" parent="qyKUGXBg0lWfFhIb5KEC-2">
          <mxGeometry x="0.0667" y="2" relative="1" as="geometry">
            <mxPoint x="-2" y="-6" as="offset" />
          </mxGeometry>
        </mxCell>
        <mxCell id="WokbYbhAWWS723QjifpL-2" value="&lt;b&gt;Profesor&lt;/b&gt;&lt;div&gt;&lt;b&gt;[Persona]&lt;br&gt;&lt;/b&gt;&lt;div&gt;&lt;br&gt;&lt;/div&gt;&lt;div&gt;visualiza los datos entregamos de los estudiantes&lt;/div&gt;&lt;/div&gt;" style="rounded=1;whiteSpace=wrap;html=1;" parent="1" vertex="1">
          <mxGeometry x="383.5" y="250" width="170" height="70" as="geometry" />
        </mxCell>
      </root>
    </mxGraphModel>
  </diagram>
  <diagram id="7HOpcwFIpgqzzPsxKx__" name="C2">
    <mxGraphModel dx="2159" dy="491" grid="1" gridSize="10" guides="1" tooltips="1" connect="1" arrows="1" fold="1" page="1" pageScale="1" pageWidth="827" pageHeight="1169" math="0" shadow="0">
      <root>
        <mxCell id="0" />
        <mxCell id="1" parent="0" />
        <mxCell id="bQVpCfr2X-abS3SFZI_A-1" value="" style="swimlane;startSize=0;" parent="1" vertex="1">
          <mxGeometry x="220" y="240" width="670" height="450" as="geometry" />
        </mxCell>
        <mxCell id="uj02bdCO-6kVVP6LJiYn-5" style="edgeStyle=orthogonalEdgeStyle;rounded=0;orthogonalLoop=1;jettySize=auto;html=1;entryX=0;entryY=0.5;entryDx=0;entryDy=0;exitX=1;exitY=0.5;exitDx=0;exitDy=0;dashed=1;" parent="bQVpCfr2X-abS3SFZI_A-1" source="_L_uRmzRJpvPBn7Swzxe-1" target="N0RJl8p9uou-XAj7aS72-9" edge="1">
          <mxGeometry relative="1" as="geometry">
            <mxPoint x="270" y="230" as="sourcePoint" />
            <mxPoint x="360" y="239.5" as="targetPoint" />
          </mxGeometry>
        </mxCell>
        <mxCell id="uj02bdCO-6kVVP6LJiYn-10" value="realiza llamadas API a&lt;div&gt;[via NGINX usando JSON/HTTP]&lt;/div&gt;" style="edgeLabel;html=1;align=center;verticalAlign=middle;resizable=0;points=[];" parent="uj02bdCO-6kVVP6LJiYn-5" vertex="1" connectable="0">
          <mxGeometry x="-0.1655" relative="1" as="geometry">
            <mxPoint x="12" y="1" as="offset" />
          </mxGeometry>
        </mxCell>
        <mxCell id="_L_uRmzRJpvPBn7Swzxe-1" value="&lt;b&gt;App movil&lt;/b&gt;&lt;div&gt;&lt;b&gt;&quot;El Botiquin de las Emociones&quot;&lt;/b&gt;&lt;/div&gt;&lt;div&gt;&lt;b&gt;[Contenedor: Unity/C#]&lt;br&gt;&lt;/b&gt;&lt;div&gt;&lt;br&gt;&lt;/div&gt;&lt;div&gt;Aplicación que registra la información obtenida de las activades&lt;/div&gt;&lt;/div&gt;" style="rounded=1;whiteSpace=wrap;html=1;" parent="bQVpCfr2X-abS3SFZI_A-1" vertex="1">
          <mxGeometry x="20" y="185" width="200" height="109" as="geometry" />
        </mxCell>
        <mxCell id="uj02bdCO-6kVVP6LJiYn-6" style="edgeStyle=orthogonalEdgeStyle;rounded=0;orthogonalLoop=1;jettySize=auto;html=1;exitX=0.5;exitY=1;exitDx=0;exitDy=0;entryX=0.5;entryY=0;entryDx=0;entryDy=0;dashed=1;" parent="bQVpCfr2X-abS3SFZI_A-1" source="uj02bdCO-6kVVP6LJiYn-2" target="N0RJl8p9uou-XAj7aS72-9" edge="1">
          <mxGeometry relative="1" as="geometry">
            <mxPoint x="460" y="190" as="targetPoint" />
            <Array as="points" />
          </mxGeometry>
        </mxCell>
        <mxCell id="uj02bdCO-6kVVP6LJiYn-12" value="realiza llamadas API a&lt;div&gt;[via NGINX usando JSON/HTTP]&lt;/div&gt;" style="edgeLabel;html=1;align=center;verticalAlign=middle;resizable=0;points=[];" parent="uj02bdCO-6kVVP6LJiYn-6" vertex="1" connectable="0">
          <mxGeometry x="-0.1148" y="3" relative="1" as="geometry">
            <mxPoint x="-3" as="offset" />
          </mxGeometry>
        </mxCell>
        <mxCell id="uj02bdCO-6kVVP6LJiYn-2" value="&lt;div&gt;&lt;b&gt;App web profesores&lt;/b&gt;&lt;/div&gt;&lt;div&gt;&lt;b&gt;[Contenedor: React/JavaScript]&lt;br&gt;&lt;/b&gt;&lt;div&gt;&lt;br&gt;&lt;/div&gt;&lt;div&gt;Dashboard con información acerca de las respuestas de los estudiantes&lt;/div&gt;&lt;div&gt;&lt;br&gt;&lt;/div&gt;&lt;/div&gt;" style="rounded=1;whiteSpace=wrap;html=1;" parent="bQVpCfr2X-abS3SFZI_A-1" vertex="1">
          <mxGeometry x="430" y="20" width="200" height="99" as="geometry" />
        </mxCell>
        <mxCell id="uj02bdCO-6kVVP6LJiYn-4" value="&lt;div&gt;&lt;b style=&quot;background-color: initial;&quot;&gt;Database&lt;/b&gt;&lt;/div&gt;&lt;div&gt;&lt;b style=&quot;background-color: initial;&quot;&gt;[Contenedor: PostgreSQL]&lt;/b&gt;&lt;br&gt;&lt;/div&gt;&lt;div&gt;&lt;div&gt;&lt;br&gt;&lt;/div&gt;&lt;/div&gt;&lt;div&gt;almacena información relacionada a estudiantes y usuarios&lt;/div&gt;" style="shape=hexagon;perimeter=hexagonPerimeter2;whiteSpace=wrap;html=1;fixedSize=1;" parent="bQVpCfr2X-abS3SFZI_A-1" vertex="1">
          <mxGeometry x="440" y="345" width="180" height="90" as="geometry" />
        </mxCell>
        <mxCell id="uj02bdCO-6kVVP6LJiYn-16" style="edgeStyle=orthogonalEdgeStyle;rounded=0;orthogonalLoop=1;jettySize=auto;html=1;entryX=0.5;entryY=0;entryDx=0;entryDy=0;exitX=0.5;exitY=1;exitDx=0;exitDy=0;dashed=1;" parent="bQVpCfr2X-abS3SFZI_A-1" target="uj02bdCO-6kVVP6LJiYn-4" edge="1" source="N0RJl8p9uou-XAj7aS72-9">
          <mxGeometry relative="1" as="geometry">
            <mxPoint x="525" y="284" as="sourcePoint" />
            <mxPoint x="505" y="295" as="targetPoint" />
            <Array as="points" />
          </mxGeometry>
        </mxCell>
        <mxCell id="uj02bdCO-6kVVP6LJiYn-17" value="lee desde&amp;nbsp;&lt;div&gt;y escribe datos a&lt;/div&gt;" style="edgeLabel;html=1;align=center;verticalAlign=middle;resizable=0;points=[];" parent="uj02bdCO-6kVVP6LJiYn-16" vertex="1" connectable="0">
          <mxGeometry x="-0.1148" y="3" relative="1" as="geometry">
            <mxPoint x="-3" y="-4" as="offset" />
          </mxGeometry>
        </mxCell>
        <mxCell id="N0RJl8p9uou-XAj7aS72-9" value="&lt;div&gt;&lt;b&gt;API&lt;/b&gt;&lt;/div&gt;&lt;div&gt;&lt;b&gt;[Contenedor: Flask/Python]&lt;br&gt;&lt;/b&gt;&lt;div&gt;&lt;br&gt;&lt;/div&gt;&lt;div&gt;Interfaz para el manejo de la base de datos&lt;/div&gt;&lt;/div&gt;" style="rounded=1;whiteSpace=wrap;html=1;" parent="bQVpCfr2X-abS3SFZI_A-1" vertex="1">
          <mxGeometry x="430" y="190" width="200" height="99" as="geometry" />
        </mxCell>
        <mxCell id="pDSxEprToQcU_FnKm9PA-1" value="" style="shape=umlActor;verticalLabelPosition=bottom;verticalAlign=top;html=1;outlineConnect=0;" parent="1" vertex="1">
          <mxGeometry x="735" y="50" width="30" height="60" as="geometry" />
        </mxCell>
        <mxCell id="pDSxEprToQcU_FnKm9PA-2" value="&lt;div&gt;&lt;br&gt;&lt;/div&gt;" style="shape=umlActor;verticalLabelPosition=bottom;verticalAlign=top;html=1;outlineConnect=0;" parent="1" vertex="1">
          <mxGeometry y="383.5" width="30" height="64" as="geometry" />
        </mxCell>
        <mxCell id="uj02bdCO-6kVVP6LJiYn-7" style="edgeStyle=orthogonalEdgeStyle;rounded=0;orthogonalLoop=1;jettySize=auto;html=1;exitX=1;exitY=0.5;exitDx=0;exitDy=0;dashed=1;" parent="1" source="pDSxEprToQcU_FnKm9PA-3" target="_L_uRmzRJpvPBn7Swzxe-1" edge="1">
          <mxGeometry relative="1" as="geometry" />
        </mxCell>
        <mxCell id="brpySA7ElniovDrgO7VD-1" value="escucha cuentos&lt;div&gt;&amp;nbsp;y realiza actividades&lt;/div&gt;" style="edgeLabel;html=1;align=center;verticalAlign=middle;resizable=0;points=[];" parent="uj02bdCO-6kVVP6LJiYn-7" vertex="1" connectable="0">
          <mxGeometry x="-0.2033" y="2" relative="1" as="geometry">
            <mxPoint x="4" y="2" as="offset" />
          </mxGeometry>
        </mxCell>
        <mxCell id="pDSxEprToQcU_FnKm9PA-3" value="&lt;b&gt;Estudiante&lt;/b&gt;&lt;div&gt;&lt;b&gt;[Persona]&lt;br&gt;&lt;/b&gt;&lt;div&gt;&lt;br&gt;&lt;/div&gt;&lt;div&gt;Usuarios de app externa&lt;/div&gt;&lt;/div&gt;" style="rounded=1;whiteSpace=wrap;html=1;" parent="1" vertex="1">
          <mxGeometry x="-60" y="447.5" width="150" height="64" as="geometry" />
        </mxCell>
        <mxCell id="uj02bdCO-6kVVP6LJiYn-18" style="edgeStyle=orthogonalEdgeStyle;rounded=0;orthogonalLoop=1;jettySize=auto;html=1;exitX=0.5;exitY=1;exitDx=0;exitDy=0;dashed=1;" parent="1" source="pDSxEprToQcU_FnKm9PA-4" target="uj02bdCO-6kVVP6LJiYn-2" edge="1">
          <mxGeometry relative="1" as="geometry" />
        </mxCell>
        <mxCell id="brpySA7ElniovDrgO7VD-2" value="ingresa al sitio web&lt;div&gt;[HTTP]&lt;/div&gt;" style="edgeLabel;html=1;align=center;verticalAlign=middle;resizable=0;points=[];" parent="uj02bdCO-6kVVP6LJiYn-18" vertex="1" connectable="0">
          <mxGeometry x="-0.16" y="-1" relative="1" as="geometry">
            <mxPoint x="1" y="-4" as="offset" />
          </mxGeometry>
        </mxCell>
        <mxCell id="pDSxEprToQcU_FnKm9PA-4" value="&lt;b&gt;Profesor&lt;/b&gt;&lt;div&gt;&lt;b&gt;[Persona]&lt;/b&gt;&lt;/div&gt;&lt;div&gt;&lt;b&gt;&lt;br&gt;&lt;/b&gt;&lt;div&gt;visualiza los datos entregamos de los estudiantes&lt;/div&gt;&lt;/div&gt;" style="rounded=1;whiteSpace=wrap;html=1;" parent="1" vertex="1">
          <mxGeometry x="665" y="110" width="170" height="70" as="geometry" />
        </mxCell>
      </root>
    </mxGraphModel>
  </diagram>
  <diagram id="DaqKPkqJ75dmOYfqk3Fo" name="C3 API">
    <mxGraphModel dx="1269" dy="468" grid="1" gridSize="10" guides="1" tooltips="1" connect="1" arrows="1" fold="1" page="1" pageScale="1" pageWidth="827" pageHeight="1169" math="0" shadow="0">
      <root>
        <mxCell id="0" />
        <mxCell id="1" parent="0" />
        <mxCell id="14pSEWt5QXqPWeVnQhMz-1" value="" style="swimlane;startSize=0;" parent="1" vertex="1">
          <mxGeometry x="160" y="250" width="910" height="520" as="geometry" />
        </mxCell>
        <mxCell id="14pSEWt5QXqPWeVnQhMz-22" value="&lt;b&gt;Controlador base de datos&lt;/b&gt;&lt;div&gt;&lt;b&gt;[&lt;/b&gt;&lt;b style=&quot;background-color: initial;&quot;&gt;Componente:&amp;nbsp;&lt;/b&gt;&lt;b style=&quot;background-color: initial;&quot;&gt;SQLAlchemy/Python]&lt;/b&gt;&lt;/div&gt;&lt;div&gt;&lt;b&gt;&lt;br&gt;&lt;/b&gt;&lt;/div&gt;&lt;div&gt;Estable la conexión con la base de datos&lt;/div&gt;" style="rounded=1;whiteSpace=wrap;html=1;" parent="14pSEWt5QXqPWeVnQhMz-1" vertex="1">
          <mxGeometry x="360" y="350" width="220" height="99" as="geometry" />
        </mxCell>
        <mxCell id="14pSEWt5QXqPWeVnQhMz-35" value="&lt;b&gt;Controlador de validación&lt;/b&gt;&lt;div&gt;&lt;b&gt;[&lt;/b&gt;&lt;b style=&quot;background-color: initial;&quot;&gt;Componente:&amp;nbsp;&lt;/b&gt;&lt;b style=&quot;background-color: initial;&quot;&gt;Marshmallow/Python]&lt;/b&gt;&lt;/div&gt;&lt;div&gt;&lt;b&gt;&lt;br&gt;&lt;/b&gt;&lt;/div&gt;&lt;div&gt;Valida los JSONs utilizado en las llamadas y respuestas de la API&lt;/div&gt;" style="rounded=1;whiteSpace=wrap;html=1;" parent="14pSEWt5QXqPWeVnQhMz-1" vertex="1">
          <mxGeometry x="90" y="280" width="220" height="110" as="geometry" />
        </mxCell>
        <mxCell id="lckIioIcj3YUtN3JD8Qq-3" value="&lt;b&gt;Controlador de estudiantes&lt;/b&gt;&lt;div&gt;&lt;b&gt;[Componente: Flask/Python]&lt;/b&gt;&lt;/div&gt;&lt;div&gt;&lt;b&gt;&lt;br&gt;&lt;/b&gt;&lt;/div&gt;&lt;div&gt;provee las funcionalidades de registrar y obtener estudiantes&amp;nbsp;&lt;/div&gt;" style="rounded=1;whiteSpace=wrap;html=1;" vertex="1" parent="14pSEWt5QXqPWeVnQhMz-1">
          <mxGeometry x="100" y="55" width="200" height="99" as="geometry" />
        </mxCell>
        <mxCell id="lckIioIcj3YUtN3JD8Qq-4" value="&lt;b&gt;Controlador de puntajes&lt;/b&gt;&lt;div&gt;&lt;b style=&quot;background-color: initial;&quot;&gt;[&lt;/b&gt;&lt;b style=&quot;background-color: initial;&quot;&gt;Componente:&amp;nbsp;&lt;/b&gt;&lt;b style=&quot;background-color: initial;&quot;&gt;Flask/Python]&lt;/b&gt;&lt;/div&gt;&lt;div&gt;&lt;div&gt;&lt;b&gt;&lt;br&gt;&lt;/b&gt;&lt;/div&gt;&lt;div&gt;provee las funcionalidades de registrar y obtener puntajes&amp;nbsp;&lt;br&gt;&lt;/div&gt;&lt;/div&gt;" style="rounded=1;whiteSpace=wrap;html=1;" vertex="1" parent="14pSEWt5QXqPWeVnQhMz-1">
          <mxGeometry x="370" y="55" width="200" height="99" as="geometry" />
        </mxCell>
        <mxCell id="lckIioIcj3YUtN3JD8Qq-5" value="&lt;b&gt;Controlador de autentificación&lt;/b&gt;&lt;div&gt;&lt;b&gt;&amp;nbsp;de usuarios&lt;/b&gt;&lt;div&gt;&lt;b&gt;[&lt;/b&gt;&lt;b style=&quot;background-color: initial;&quot;&gt;Componente:&amp;nbsp;&lt;/b&gt;&lt;b style=&quot;background-color: initial;&quot;&gt;Flask/Python]&lt;/b&gt;&lt;/div&gt;&lt;div&gt;&lt;b&gt;&lt;br&gt;&lt;/b&gt;&lt;/div&gt;&lt;div&gt;provee las funcionalidades de registrar e iniciar sesión de usuario&amp;nbsp;&lt;br&gt;&lt;/div&gt;&lt;/div&gt;" style="rounded=1;whiteSpace=wrap;html=1;" vertex="1" parent="14pSEWt5QXqPWeVnQhMz-1">
          <mxGeometry x="640" y="55" width="200" height="99" as="geometry" />
        </mxCell>
        <mxCell id="14pSEWt5QXqPWeVnQhMz-34" value="&lt;b&gt;Controlador de seguridad&lt;/b&gt;&lt;div&gt;&lt;b&gt;[&lt;/b&gt;&lt;b style=&quot;background-color: initial;&quot;&gt;Componente:&amp;nbsp;&lt;/b&gt;&lt;b style=&quot;background-color: initial;&quot;&gt;JWT/Python]&lt;/b&gt;&lt;/div&gt;&lt;div&gt;&lt;b&gt;&lt;br&gt;&lt;/b&gt;&lt;/div&gt;&lt;div&gt;Se encarga de encriptar contraseñas y manejar los tokens de seguridad para el uso autorizado de las llamadas API&lt;/div&gt;" style="rounded=1;whiteSpace=wrap;html=1;" parent="14pSEWt5QXqPWeVnQhMz-1" vertex="1">
          <mxGeometry x="630" y="280" width="220" height="109" as="geometry" />
        </mxCell>
        <mxCell id="DELMsSmxDukbLjZJyswQ-16" style="rounded=0;orthogonalLoop=1;jettySize=auto;html=1;exitX=0.75;exitY=1;exitDx=0;exitDy=0;entryX=0.75;entryY=0;entryDx=0;entryDy=0;dashed=1;" edge="1" parent="14pSEWt5QXqPWeVnQhMz-1" source="lckIioIcj3YUtN3JD8Qq-5" target="14pSEWt5QXqPWeVnQhMz-34">
          <mxGeometry relative="1" as="geometry">
            <mxPoint x="810" y="-71" as="sourcePoint" />
            <mxPoint x="750" y="65" as="targetPoint" />
          </mxGeometry>
        </mxCell>
        <mxCell id="3f-nYiDe0M0VWxUYPsMo-16" value="usa" style="edgeLabel;html=1;align=center;verticalAlign=middle;resizable=0;points=[];" vertex="1" connectable="0" parent="DELMsSmxDukbLjZJyswQ-16">
          <mxGeometry x="-0.505" relative="1" as="geometry">
            <mxPoint as="offset" />
          </mxGeometry>
        </mxCell>
        <mxCell id="DELMsSmxDukbLjZJyswQ-17" style="rounded=0;orthogonalLoop=1;jettySize=auto;html=1;exitX=0.5;exitY=1;exitDx=0;exitDy=0;entryX=0.75;entryY=0;entryDx=0;entryDy=0;dashed=1;" edge="1" parent="14pSEWt5QXqPWeVnQhMz-1" source="lckIioIcj3YUtN3JD8Qq-5" target="14pSEWt5QXqPWeVnQhMz-22">
          <mxGeometry relative="1" as="geometry">
            <mxPoint x="800" y="164" as="sourcePoint" />
            <mxPoint x="750" y="291" as="targetPoint" />
          </mxGeometry>
        </mxCell>
        <mxCell id="3f-nYiDe0M0VWxUYPsMo-15" value="usa" style="edgeLabel;html=1;align=center;verticalAlign=middle;resizable=0;points=[];" vertex="1" connectable="0" parent="DELMsSmxDukbLjZJyswQ-17">
          <mxGeometry x="-0.7246" y="2" relative="1" as="geometry">
            <mxPoint as="offset" />
          </mxGeometry>
        </mxCell>
        <mxCell id="DELMsSmxDukbLjZJyswQ-18" style="rounded=0;orthogonalLoop=1;jettySize=auto;html=1;exitX=0.25;exitY=1;exitDx=0;exitDy=0;entryX=0.75;entryY=0;entryDx=0;entryDy=0;dashed=1;" edge="1" parent="14pSEWt5QXqPWeVnQhMz-1" source="lckIioIcj3YUtN3JD8Qq-5" target="14pSEWt5QXqPWeVnQhMz-35">
          <mxGeometry relative="1" as="geometry">
            <mxPoint x="810" y="174" as="sourcePoint" />
            <mxPoint x="760" y="301" as="targetPoint" />
          </mxGeometry>
        </mxCell>
        <mxCell id="3f-nYiDe0M0VWxUYPsMo-11" value="usa" style="edgeLabel;html=1;align=center;verticalAlign=middle;resizable=0;points=[];" vertex="1" connectable="0" parent="DELMsSmxDukbLjZJyswQ-18">
          <mxGeometry x="0.3294" relative="1" as="geometry">
            <mxPoint x="229" y="-68" as="offset" />
          </mxGeometry>
        </mxCell>
        <mxCell id="DELMsSmxDukbLjZJyswQ-19" style="rounded=0;orthogonalLoop=1;jettySize=auto;html=1;exitX=0.75;exitY=1;exitDx=0;exitDy=0;entryX=0.5;entryY=0;entryDx=0;entryDy=0;dashed=1;" edge="1" parent="14pSEWt5QXqPWeVnQhMz-1" source="lckIioIcj3YUtN3JD8Qq-4" target="14pSEWt5QXqPWeVnQhMz-34">
          <mxGeometry relative="1" as="geometry">
            <mxPoint x="700" y="164" as="sourcePoint" />
            <mxPoint x="260" y="280" as="targetPoint" />
          </mxGeometry>
        </mxCell>
        <mxCell id="3f-nYiDe0M0VWxUYPsMo-14" value="usa" style="edgeLabel;html=1;align=center;verticalAlign=middle;resizable=0;points=[];" vertex="1" connectable="0" parent="DELMsSmxDukbLjZJyswQ-19">
          <mxGeometry x="-0.7549" y="1" relative="1" as="geometry">
            <mxPoint as="offset" />
          </mxGeometry>
        </mxCell>
        <mxCell id="DELMsSmxDukbLjZJyswQ-20" style="rounded=0;orthogonalLoop=1;jettySize=auto;html=1;exitX=0.5;exitY=1;exitDx=0;exitDy=0;entryX=0.5;entryY=0;entryDx=0;entryDy=0;dashed=1;" edge="1" parent="14pSEWt5QXqPWeVnQhMz-1" source="lckIioIcj3YUtN3JD8Qq-4" target="14pSEWt5QXqPWeVnQhMz-22">
          <mxGeometry relative="1" as="geometry">
            <mxPoint x="710" y="174" as="sourcePoint" />
            <mxPoint x="270" y="290" as="targetPoint" />
          </mxGeometry>
        </mxCell>
        <mxCell id="3f-nYiDe0M0VWxUYPsMo-12" value="usa" style="edgeLabel;html=1;align=center;verticalAlign=middle;resizable=0;points=[];" vertex="1" connectable="0" parent="DELMsSmxDukbLjZJyswQ-20">
          <mxGeometry x="-0.1037" y="1" relative="1" as="geometry">
            <mxPoint x="-1" y="-61" as="offset" />
          </mxGeometry>
        </mxCell>
        <mxCell id="DELMsSmxDukbLjZJyswQ-21" style="rounded=0;orthogonalLoop=1;jettySize=auto;html=1;exitX=0.25;exitY=1;exitDx=0;exitDy=0;entryX=0.5;entryY=0;entryDx=0;entryDy=0;dashed=1;" edge="1" parent="14pSEWt5QXqPWeVnQhMz-1" source="lckIioIcj3YUtN3JD8Qq-4" target="14pSEWt5QXqPWeVnQhMz-35">
          <mxGeometry relative="1" as="geometry">
            <mxPoint x="480" y="164" as="sourcePoint" />
            <mxPoint x="465" y="360" as="targetPoint" />
          </mxGeometry>
        </mxCell>
        <mxCell id="3f-nYiDe0M0VWxUYPsMo-10" value="usa" style="edgeLabel;html=1;align=center;verticalAlign=middle;resizable=0;points=[];" vertex="1" connectable="0" parent="DELMsSmxDukbLjZJyswQ-21">
          <mxGeometry x="-0.1482" y="-1" relative="1" as="geometry">
            <mxPoint x="65" y="-37" as="offset" />
          </mxGeometry>
        </mxCell>
        <mxCell id="DELMsSmxDukbLjZJyswQ-22" style="rounded=0;orthogonalLoop=1;jettySize=auto;html=1;exitX=0.75;exitY=1;exitDx=0;exitDy=0;entryX=0.25;entryY=0;entryDx=0;entryDy=0;dashed=1;" edge="1" parent="14pSEWt5QXqPWeVnQhMz-1" source="lckIioIcj3YUtN3JD8Qq-3" target="14pSEWt5QXqPWeVnQhMz-34">
          <mxGeometry relative="1" as="geometry">
            <mxPoint x="430" y="164" as="sourcePoint" />
            <mxPoint x="210" y="280" as="targetPoint" />
          </mxGeometry>
        </mxCell>
        <mxCell id="3f-nYiDe0M0VWxUYPsMo-13" value="usa" style="edgeLabel;html=1;align=center;verticalAlign=middle;resizable=0;points=[];" vertex="1" connectable="0" parent="DELMsSmxDukbLjZJyswQ-22">
          <mxGeometry x="-0.6407" y="1" relative="1" as="geometry">
            <mxPoint as="offset" />
          </mxGeometry>
        </mxCell>
        <mxCell id="DELMsSmxDukbLjZJyswQ-23" style="rounded=0;orthogonalLoop=1;jettySize=auto;html=1;exitX=0.5;exitY=1;exitDx=0;exitDy=0;entryX=0.25;entryY=0;entryDx=0;entryDy=0;dashed=1;" edge="1" parent="14pSEWt5QXqPWeVnQhMz-1" source="lckIioIcj3YUtN3JD8Qq-3" target="14pSEWt5QXqPWeVnQhMz-22">
          <mxGeometry relative="1" as="geometry">
            <mxPoint x="440" y="174" as="sourcePoint" />
            <mxPoint x="220" y="290" as="targetPoint" />
          </mxGeometry>
        </mxCell>
        <mxCell id="3f-nYiDe0M0VWxUYPsMo-9" value="usa" style="edgeLabel;html=1;align=center;verticalAlign=middle;resizable=0;points=[];" vertex="1" connectable="0" parent="DELMsSmxDukbLjZJyswQ-23">
          <mxGeometry x="-0.521" y="-1" relative="1" as="geometry">
            <mxPoint as="offset" />
          </mxGeometry>
        </mxCell>
        <mxCell id="DELMsSmxDukbLjZJyswQ-24" style="rounded=0;orthogonalLoop=1;jettySize=auto;html=1;exitX=0.25;exitY=1;exitDx=0;exitDy=0;entryX=0.25;entryY=0;entryDx=0;entryDy=0;dashed=1;" edge="1" parent="14pSEWt5QXqPWeVnQhMz-1" source="lckIioIcj3YUtN3JD8Qq-3" target="14pSEWt5QXqPWeVnQhMz-35">
          <mxGeometry relative="1" as="geometry">
            <mxPoint x="450" y="184" as="sourcePoint" />
            <mxPoint x="230" y="300" as="targetPoint" />
          </mxGeometry>
        </mxCell>
        <mxCell id="3f-nYiDe0M0VWxUYPsMo-8" value="usa" style="edgeLabel;html=1;align=center;verticalAlign=middle;resizable=0;points=[];" vertex="1" connectable="0" parent="DELMsSmxDukbLjZJyswQ-24">
          <mxGeometry x="-0.1099" y="2" relative="1" as="geometry">
            <mxPoint as="offset" />
          </mxGeometry>
        </mxCell>
        <mxCell id="DELMsSmxDukbLjZJyswQ-11" style="rounded=0;orthogonalLoop=1;jettySize=auto;html=1;exitX=0.404;exitY=0.995;exitDx=0;exitDy=0;entryX=0.4;entryY=0.002;entryDx=0;entryDy=0;entryPerimeter=0;exitPerimeter=0;dashed=1;" edge="1" parent="1" source="lckIioIcj3YUtN3JD8Qq-1" target="lckIioIcj3YUtN3JD8Qq-3">
          <mxGeometry relative="1" as="geometry" />
        </mxCell>
        <mxCell id="Z2RF6CptVken0b4oI11s-4" value="registra estudiantes&lt;br&gt;&lt;div&gt;[via NGINX usando JSON/HTTP]&lt;/div&gt;" style="edgeLabel;html=1;align=center;verticalAlign=middle;resizable=0;points=[];" vertex="1" connectable="0" parent="DELMsSmxDukbLjZJyswQ-11">
          <mxGeometry x="-0.1742" y="1" relative="1" as="geometry">
            <mxPoint x="-30" as="offset" />
          </mxGeometry>
        </mxCell>
        <mxCell id="DELMsSmxDukbLjZJyswQ-12" style="rounded=0;orthogonalLoop=1;jettySize=auto;html=1;entryX=0.396;entryY=0.002;entryDx=0;entryDy=0;exitX=0.6;exitY=1.003;exitDx=0;exitDy=0;exitPerimeter=0;entryPerimeter=0;dashed=1;" edge="1" parent="1" source="lckIioIcj3YUtN3JD8Qq-1" target="lckIioIcj3YUtN3JD8Qq-4">
          <mxGeometry relative="1" as="geometry" />
        </mxCell>
        <mxCell id="3f-nYiDe0M0VWxUYPsMo-1" value="registra puntajes&lt;br&gt;&lt;div&gt;[via NGINX usando JSON/HTTP]&lt;/div&gt;" style="edgeLabel;html=1;align=center;verticalAlign=middle;resizable=0;points=[];" vertex="1" connectable="0" parent="DELMsSmxDukbLjZJyswQ-12">
          <mxGeometry x="-0.1815" y="-1" relative="1" as="geometry">
            <mxPoint x="19" y="1" as="offset" />
          </mxGeometry>
        </mxCell>
        <mxCell id="lckIioIcj3YUtN3JD8Qq-1" value="&lt;b&gt;App movil&lt;/b&gt;&lt;div&gt;&lt;b&gt;&quot;El Botiquin de las Emociones&quot;&lt;/b&gt;&lt;/div&gt;&lt;div&gt;&lt;b&gt;[Contenedor: Unity/C#]&lt;br&gt;&lt;/b&gt;&lt;div&gt;&lt;br&gt;&lt;/div&gt;&lt;div&gt;Aplicación que registra la información obtenida de las activades&lt;/div&gt;&lt;/div&gt;" style="rounded=1;whiteSpace=wrap;html=1;" vertex="1" parent="1">
          <mxGeometry x="240" y="65" width="200" height="109" as="geometry" />
        </mxCell>
        <mxCell id="DELMsSmxDukbLjZJyswQ-13" style="rounded=0;orthogonalLoop=1;jettySize=auto;html=1;exitX=0.75;exitY=1;exitDx=0;exitDy=0;entryX=0.5;entryY=0;entryDx=0;entryDy=0;dashed=1;" edge="1" parent="1" source="lckIioIcj3YUtN3JD8Qq-2" target="lckIioIcj3YUtN3JD8Qq-5">
          <mxGeometry relative="1" as="geometry" />
        </mxCell>
        <mxCell id="3f-nYiDe0M0VWxUYPsMo-4" value="registrar y logea usuarios&lt;br&gt;&lt;div&gt;[via NGINX usando JSON/HTTP]&lt;/div&gt;" style="edgeLabel;html=1;align=center;verticalAlign=middle;resizable=0;points=[];" vertex="1" connectable="0" parent="DELMsSmxDukbLjZJyswQ-13">
          <mxGeometry x="-0.3412" y="3" relative="1" as="geometry">
            <mxPoint x="57" as="offset" />
          </mxGeometry>
        </mxCell>
        <mxCell id="DELMsSmxDukbLjZJyswQ-14" style="rounded=0;orthogonalLoop=1;jettySize=auto;html=1;exitX=0.5;exitY=1;exitDx=0;exitDy=0;entryX=0.596;entryY=0.002;entryDx=0;entryDy=0;entryPerimeter=0;dashed=1;" edge="1" parent="1" source="lckIioIcj3YUtN3JD8Qq-2" target="lckIioIcj3YUtN3JD8Qq-4">
          <mxGeometry relative="1" as="geometry" />
        </mxCell>
        <mxCell id="3f-nYiDe0M0VWxUYPsMo-3" value="obtiene información de puntajes&lt;br&gt;&lt;div&gt;[via NGINX usando JSON/HTTP]&lt;/div&gt;" style="edgeLabel;html=1;align=center;verticalAlign=middle;resizable=0;points=[];" vertex="1" connectable="0" parent="DELMsSmxDukbLjZJyswQ-14">
          <mxGeometry x="-0.1808" y="-1" relative="1" as="geometry">
            <mxPoint x="25" y="-4" as="offset" />
          </mxGeometry>
        </mxCell>
        <mxCell id="DELMsSmxDukbLjZJyswQ-15" style="rounded=0;orthogonalLoop=1;jettySize=auto;html=1;exitX=0.25;exitY=1;exitDx=0;exitDy=0;entryX=0.604;entryY=0.002;entryDx=0;entryDy=0;entryPerimeter=0;dashed=1;" edge="1" parent="1" source="lckIioIcj3YUtN3JD8Qq-2" target="lckIioIcj3YUtN3JD8Qq-3">
          <mxGeometry relative="1" as="geometry" />
        </mxCell>
        <mxCell id="3f-nYiDe0M0VWxUYPsMo-2" value="obtiene información de estudiantes&lt;br&gt;&lt;div&gt;[via NGINX usando JSON/HTTP]&lt;/div&gt;" style="edgeLabel;html=1;align=center;verticalAlign=middle;resizable=0;points=[];" vertex="1" connectable="0" parent="DELMsSmxDukbLjZJyswQ-15">
          <mxGeometry x="-0.2009" y="-1" relative="1" as="geometry">
            <mxPoint x="-18" y="-12" as="offset" />
          </mxGeometry>
        </mxCell>
        <mxCell id="lckIioIcj3YUtN3JD8Qq-2" value="&lt;div&gt;&lt;b&gt;App web profesores&lt;/b&gt;&lt;/div&gt;&lt;div&gt;&lt;b&gt;[Contenedor: React/JavaScript]&lt;br&gt;&lt;/b&gt;&lt;div&gt;&lt;br&gt;&lt;/div&gt;&lt;div&gt;Dashboard con información acerca de las respuestas de los estudiantes&lt;/div&gt;&lt;div&gt;&lt;br&gt;&lt;/div&gt;&lt;/div&gt;" style="rounded=1;whiteSpace=wrap;html=1;" vertex="1" parent="1">
          <mxGeometry x="810" y="70" width="200" height="99" as="geometry" />
        </mxCell>
        <mxCell id="Z2RF6CptVken0b4oI11s-1" value="&lt;div&gt;&lt;b style=&quot;background-color: initial;&quot;&gt;Database&lt;/b&gt;&lt;/div&gt;&lt;div&gt;&lt;b style=&quot;background-color: initial;&quot;&gt;[Contenedor: PostgreSQL]&lt;/b&gt;&lt;br&gt;&lt;/div&gt;&lt;div&gt;&lt;div&gt;&lt;br&gt;&lt;/div&gt;&lt;/div&gt;&lt;div&gt;almacena información relacionada a estudiantes y usuarios&lt;/div&gt;" style="shape=hexagon;perimeter=hexagonPerimeter2;whiteSpace=wrap;html=1;fixedSize=1;" vertex="1" parent="1">
          <mxGeometry x="540" y="810" width="180" height="90" as="geometry" />
        </mxCell>
        <mxCell id="Z2RF6CptVken0b4oI11s-2" style="edgeStyle=orthogonalEdgeStyle;rounded=0;orthogonalLoop=1;jettySize=auto;html=1;entryX=0.5;entryY=0;entryDx=0;entryDy=0;exitX=0.5;exitY=1;exitDx=0;exitDy=0;dashed=1;" edge="1" parent="1" target="Z2RF6CptVken0b4oI11s-1" source="14pSEWt5QXqPWeVnQhMz-22">
          <mxGeometry relative="1" as="geometry">
            <mxPoint x="740" y="810" as="sourcePoint" />
            <mxPoint x="715" y="816" as="targetPoint" />
            <Array as="points" />
          </mxGeometry>
        </mxCell>
        <mxCell id="Z2RF6CptVken0b4oI11s-3" value="lee desde&amp;nbsp;&lt;div&gt;y escribe datos a&lt;/div&gt;" style="edgeLabel;html=1;align=center;verticalAlign=middle;resizable=0;points=[];" vertex="1" connectable="0" parent="Z2RF6CptVken0b4oI11s-2">
          <mxGeometry x="-0.1148" y="3" relative="1" as="geometry">
            <mxPoint x="42" as="offset" />
          </mxGeometry>
        </mxCell>
      </root>
    </mxGraphModel>
  </diagram>
  <diagram id="4D0tt5a8EZRV8x4-nN7R" name="C3 ElBotiquin">
    <mxGraphModel dx="3032" dy="491" grid="1" gridSize="10" guides="1" tooltips="1" connect="1" arrows="1" fold="1" page="1" pageScale="1" pageWidth="850" pageHeight="1100" math="0" shadow="0">
      <root>
        <mxCell id="0" />
        <mxCell id="1" parent="0" />
        <mxCell id="G2wVYE7ukN3yJ8T1SEyi-1" value="x" style="swimlane;startSize=0;" vertex="1" parent="1">
          <mxGeometry x="-1300" y="280" width="1200" height="680" as="geometry" />
        </mxCell>
        <mxCell id="HxB-cP4XPRu8IZ1d6pRn-33" style="edgeStyle=orthogonalEdgeStyle;rounded=0;orthogonalLoop=1;jettySize=auto;html=1;exitX=0;exitY=0.596;exitDx=0;exitDy=0;entryX=1.005;entryY=0.596;entryDx=0;entryDy=0;entryPerimeter=0;exitPerimeter=0;dashed=1;" edge="1" parent="G2wVYE7ukN3yJ8T1SEyi-1" source="G2wVYE7ukN3yJ8T1SEyi-13" target="ZZl-MO3Ljh9kszsNjgB2-1">
          <mxGeometry relative="1" as="geometry" />
        </mxCell>
        <mxCell id="HxB-cP4XPRu8IZ1d6pRn-35" value="entrega respuesta&amp;nbsp;&lt;div&gt;del servidor&lt;/div&gt;" style="edgeLabel;html=1;align=center;verticalAlign=middle;resizable=0;points=[];" vertex="1" connectable="0" parent="HxB-cP4XPRu8IZ1d6pRn-33">
          <mxGeometry x="0.0504" relative="1" as="geometry">
            <mxPoint x="3" y="20" as="offset" />
          </mxGeometry>
        </mxCell>
        <mxCell id="G2wVYE7ukN3yJ8T1SEyi-13" value="&lt;b&gt;Controlador cliente REST&lt;/b&gt;&lt;div&gt;&lt;b&gt;[Componente: Unity/C#]&lt;/b&gt;&lt;/div&gt;&lt;div&gt;&lt;b&gt;&lt;br&gt;&lt;/b&gt;&lt;/div&gt;&lt;div&gt;Se encarga de realizar la conexión con la API&lt;/div&gt;" style="rounded=1;whiteSpace=wrap;html=1;" vertex="1" parent="G2wVYE7ukN3yJ8T1SEyi-1">
          <mxGeometry x="930" y="130" width="200" height="109" as="geometry" />
        </mxCell>
        <mxCell id="HxB-cP4XPRu8IZ1d6pRn-1" style="edgeStyle=orthogonalEdgeStyle;rounded=0;orthogonalLoop=1;jettySize=auto;html=1;entryX=-0.005;entryY=0.404;entryDx=0;entryDy=0;entryPerimeter=0;exitX=0.995;exitY=0.404;exitDx=0;exitDy=0;exitPerimeter=0;dashed=1;" edge="1" parent="G2wVYE7ukN3yJ8T1SEyi-1" source="ZZl-MO3Ljh9kszsNjgB2-1" target="G2wVYE7ukN3yJ8T1SEyi-13">
          <mxGeometry relative="1" as="geometry" />
        </mxCell>
        <mxCell id="HxB-cP4XPRu8IZ1d6pRn-34" value="le entrega la información&lt;div&gt;&amp;nbsp;necesaria para realizar&lt;/div&gt;&lt;div&gt;&amp;nbsp;una llamada API&lt;/div&gt;" style="edgeLabel;html=1;align=center;verticalAlign=middle;resizable=0;points=[];" vertex="1" connectable="0" parent="HxB-cP4XPRu8IZ1d6pRn-1">
          <mxGeometry x="-0.2857" y="-2" relative="1" as="geometry">
            <mxPoint x="21" y="-26" as="offset" />
          </mxGeometry>
        </mxCell>
        <mxCell id="HxB-cP4XPRu8IZ1d6pRn-14" style="edgeStyle=orthogonalEdgeStyle;rounded=0;orthogonalLoop=1;jettySize=auto;html=1;exitX=0;exitY=0.596;exitDx=0;exitDy=0;entryX=1;entryY=0.596;entryDx=0;entryDy=0;exitPerimeter=0;entryPerimeter=0;dashed=1;" edge="1" parent="G2wVYE7ukN3yJ8T1SEyi-1" source="ZZl-MO3Ljh9kszsNjgB2-1" target="HxB-cP4XPRu8IZ1d6pRn-12">
          <mxGeometry relative="1" as="geometry" />
        </mxCell>
        <mxCell id="HxB-cP4XPRu8IZ1d6pRn-21" style="rounded=0;orthogonalLoop=1;jettySize=auto;html=1;exitX=0.395;exitY=1;exitDx=0;exitDy=0;entryX=0.75;entryY=0;entryDx=0;entryDy=0;exitPerimeter=0;dashed=1;" edge="1" parent="G2wVYE7ukN3yJ8T1SEyi-1" source="ZZl-MO3Ljh9kszsNjgB2-1" target="ZZl-MO3Ljh9kszsNjgB2-3">
          <mxGeometry relative="1" as="geometry" />
        </mxCell>
        <mxCell id="HxB-cP4XPRu8IZ1d6pRn-22" value="activa mensaje de error" style="edgeLabel;html=1;align=center;verticalAlign=middle;resizable=0;points=[];" vertex="1" connectable="0" parent="HxB-cP4XPRu8IZ1d6pRn-21">
          <mxGeometry x="0.2125" y="2" relative="1" as="geometry">
            <mxPoint x="22" y="-16" as="offset" />
          </mxGeometry>
        </mxCell>
        <mxCell id="ZZl-MO3Ljh9kszsNjgB2-1" value="&lt;b&gt;Controlador llamadas API&lt;/b&gt;&lt;div&gt;&lt;b&gt;[Componente: Unity/C#]&lt;/b&gt;&lt;/div&gt;&lt;div&gt;&lt;b&gt;&lt;br&gt;&lt;/b&gt;&lt;/div&gt;&lt;div&gt;Se encarga de manejar las llamadas y respuesta de la API&lt;/div&gt;" style="rounded=1;whiteSpace=wrap;html=1;" vertex="1" parent="G2wVYE7ukN3yJ8T1SEyi-1">
          <mxGeometry x="590" y="130" width="200" height="109" as="geometry" />
        </mxCell>
        <mxCell id="ZZl-MO3Ljh9kszsNjgB2-3" value="&lt;b&gt;Controlador UI&lt;/b&gt;&lt;div&gt;&lt;b&gt;[Componente: Unity/C#]&lt;/b&gt;&lt;/div&gt;&lt;div&gt;&lt;b&gt;&lt;br&gt;&lt;/b&gt;&lt;/div&gt;&lt;div&gt;Se encarga de manejar los cambios en la UI&lt;/div&gt;" style="rounded=1;whiteSpace=wrap;html=1;" vertex="1" parent="G2wVYE7ukN3yJ8T1SEyi-1">
          <mxGeometry x="370" y="330" width="200" height="109" as="geometry" />
        </mxCell>
        <mxCell id="HxB-cP4XPRu8IZ1d6pRn-10" style="rounded=0;orthogonalLoop=1;jettySize=auto;html=1;entryX=0.595;entryY=1;entryDx=0;entryDy=0;exitX=0.5;exitY=0;exitDx=0;exitDy=0;entryPerimeter=0;dashed=1;" edge="1" parent="G2wVYE7ukN3yJ8T1SEyi-1" source="ZZl-MO3Ljh9kszsNjgB2-4" target="ZZl-MO3Ljh9kszsNjgB2-1">
          <mxGeometry relative="1" as="geometry">
            <mxPoint x="960" y="420" as="sourcePoint" />
            <mxPoint x="650" y="240" as="targetPoint" />
          </mxGeometry>
        </mxCell>
        <mxCell id="HxB-cP4XPRu8IZ1d6pRn-24" value="realiza la llamada para enviar&amp;nbsp;&lt;div&gt;los puntajes almacenados&lt;/div&gt;" style="edgeLabel;html=1;align=center;verticalAlign=middle;resizable=0;points=[];" vertex="1" connectable="0" parent="HxB-cP4XPRu8IZ1d6pRn-10">
          <mxGeometry x="-0.1848" y="4" relative="1" as="geometry">
            <mxPoint x="9" y="-27" as="offset" />
          </mxGeometry>
        </mxCell>
        <mxCell id="ZZl-MO3Ljh9kszsNjgB2-4" value="&lt;b&gt;Controlador de puntajes&lt;/b&gt;&lt;div&gt;&lt;b&gt;[Componente: Unity/C#]&lt;/b&gt;&lt;/div&gt;&lt;div&gt;&lt;b&gt;&lt;br&gt;&lt;/b&gt;&lt;/div&gt;&lt;div&gt;Se encarga de manejar los puntajes obtenidos&lt;/div&gt;" style="rounded=1;whiteSpace=wrap;html=1;" vertex="1" parent="G2wVYE7ukN3yJ8T1SEyi-1">
          <mxGeometry x="670" y="520" width="200" height="109" as="geometry" />
        </mxCell>
        <mxCell id="HxB-cP4XPRu8IZ1d6pRn-8" style="edgeStyle=orthogonalEdgeStyle;rounded=0;orthogonalLoop=1;jettySize=auto;html=1;entryX=0.5;entryY=1;entryDx=0;entryDy=0;exitX=0.5;exitY=0;exitDx=0;exitDy=0;dashed=1;" edge="1" parent="G2wVYE7ukN3yJ8T1SEyi-1" source="HxB-cP4XPRu8IZ1d6pRn-2" target="ZZl-MO3Ljh9kszsNjgB2-3">
          <mxGeometry relative="1" as="geometry" />
        </mxCell>
        <mxCell id="HxB-cP4XPRu8IZ1d6pRn-39" value="maneja los elementos UI&lt;div&gt;relacionados a las actvidades&lt;/div&gt;" style="edgeLabel;html=1;align=center;verticalAlign=middle;resizable=0;points=[];" vertex="1" connectable="0" parent="HxB-cP4XPRu8IZ1d6pRn-8">
          <mxGeometry x="0.2099" y="-2" relative="1" as="geometry">
            <mxPoint x="-2" y="9" as="offset" />
          </mxGeometry>
        </mxCell>
        <mxCell id="HxB-cP4XPRu8IZ1d6pRn-9" style="edgeStyle=orthogonalEdgeStyle;rounded=0;orthogonalLoop=1;jettySize=auto;html=1;exitX=1;exitY=0.5;exitDx=0;exitDy=0;entryX=0;entryY=0.5;entryDx=0;entryDy=0;dashed=1;" edge="1" parent="G2wVYE7ukN3yJ8T1SEyi-1" source="HxB-cP4XPRu8IZ1d6pRn-2" target="ZZl-MO3Ljh9kszsNjgB2-4">
          <mxGeometry relative="1" as="geometry" />
        </mxCell>
        <mxCell id="HxB-cP4XPRu8IZ1d6pRn-31" value="le envia&amp;nbsp;&lt;div&gt;los puntajes&lt;/div&gt;" style="edgeLabel;html=1;align=center;verticalAlign=middle;resizable=0;points=[];" vertex="1" connectable="0" parent="HxB-cP4XPRu8IZ1d6pRn-9">
          <mxGeometry x="-0.3" y="2" relative="1" as="geometry">
            <mxPoint x="15" y="-22" as="offset" />
          </mxGeometry>
        </mxCell>
        <mxCell id="HxB-cP4XPRu8IZ1d6pRn-2" value="&lt;b&gt;Controlador de activades&lt;/b&gt;&lt;div&gt;&lt;b&gt;[Componente: Unity/C#]&lt;/b&gt;&lt;/div&gt;&lt;div&gt;&lt;b&gt;&lt;br&gt;&lt;/b&gt;&lt;/div&gt;&lt;div&gt;Se encarga de manejar el correcto funcionamiento de una actividad&lt;/div&gt;" style="rounded=1;whiteSpace=wrap;html=1;" vertex="1" parent="G2wVYE7ukN3yJ8T1SEyi-1">
          <mxGeometry x="370" y="520" width="200" height="109" as="geometry" />
        </mxCell>
        <mxCell id="HxB-cP4XPRu8IZ1d6pRn-13" style="edgeStyle=orthogonalEdgeStyle;rounded=0;orthogonalLoop=1;jettySize=auto;html=1;exitX=0.995;exitY=0.404;exitDx=0;exitDy=0;entryX=-0.005;entryY=0.404;entryDx=0;entryDy=0;exitPerimeter=0;entryPerimeter=0;dashed=1;" edge="1" parent="G2wVYE7ukN3yJ8T1SEyi-1" source="HxB-cP4XPRu8IZ1d6pRn-12" target="ZZl-MO3Ljh9kszsNjgB2-1">
          <mxGeometry relative="1" as="geometry" />
        </mxCell>
        <mxCell id="HxB-cP4XPRu8IZ1d6pRn-25" value="realiza la llamada para&amp;nbsp;&lt;div&gt;crear un estudiante&lt;/div&gt;" style="edgeLabel;html=1;align=center;verticalAlign=middle;resizable=0;points=[];" vertex="1" connectable="0" parent="HxB-cP4XPRu8IZ1d6pRn-13">
          <mxGeometry x="-0.1667" y="2" relative="1" as="geometry">
            <mxPoint x="16" y="-22" as="offset" />
          </mxGeometry>
        </mxCell>
        <mxCell id="HxB-cP4XPRu8IZ1d6pRn-17" style="rounded=0;orthogonalLoop=1;jettySize=auto;html=1;entryX=0.3;entryY=0;entryDx=0;entryDy=0;exitX=0.4;exitY=1;exitDx=0;exitDy=0;exitPerimeter=0;entryPerimeter=0;dashed=1;" edge="1" parent="G2wVYE7ukN3yJ8T1SEyi-1" source="HxB-cP4XPRu8IZ1d6pRn-12" target="ZZl-MO3Ljh9kszsNjgB2-3">
          <mxGeometry relative="1" as="geometry" />
        </mxCell>
        <mxCell id="HxB-cP4XPRu8IZ1d6pRn-37" value="cambia de escena" style="edgeLabel;html=1;align=center;verticalAlign=middle;resizable=0;points=[];" vertex="1" connectable="0" parent="HxB-cP4XPRu8IZ1d6pRn-17">
          <mxGeometry x="-0.5281" y="-1" relative="1" as="geometry">
            <mxPoint x="28" y="19" as="offset" />
          </mxGeometry>
        </mxCell>
        <mxCell id="HxB-cP4XPRu8IZ1d6pRn-12" value="&lt;b&gt;Controlador perfil de estudiante&lt;/b&gt;&lt;div&gt;&lt;b&gt;[Componente: Unity/C#]&lt;/b&gt;&lt;/div&gt;&lt;div&gt;&lt;b&gt;&lt;br&gt;&lt;/b&gt;&lt;/div&gt;&lt;div&gt;Se encarga de manejar el perfil del estudiante&lt;/div&gt;" style="rounded=1;whiteSpace=wrap;html=1;" vertex="1" parent="G2wVYE7ukN3yJ8T1SEyi-1">
          <mxGeometry x="210" y="130" width="200" height="109" as="geometry" />
        </mxCell>
        <mxCell id="ZZl-MO3Ljh9kszsNjgB2-2" value="&lt;b&gt;&amp;nbsp;Controlador de guardado&lt;/b&gt;&lt;div&gt;&lt;b&gt;[Componente: Unity/C#]&lt;/b&gt;&lt;/div&gt;&lt;div&gt;&lt;b&gt;&lt;br&gt;&lt;/b&gt;&lt;/div&gt;&lt;div&gt;Se encarga de manejar la información de forma local del estudiante&lt;/div&gt;" style="rounded=1;whiteSpace=wrap;html=1;" vertex="1" parent="G2wVYE7ukN3yJ8T1SEyi-1">
          <mxGeometry x="70" y="350" width="200" height="109" as="geometry" />
        </mxCell>
        <mxCell id="HxB-cP4XPRu8IZ1d6pRn-5" style="rounded=0;orthogonalLoop=1;jettySize=auto;html=1;exitX=-0.005;exitY=0.596;exitDx=0;exitDy=0;entryX=0.5;entryY=0;entryDx=0;entryDy=0;exitPerimeter=0;dashed=1;" edge="1" parent="G2wVYE7ukN3yJ8T1SEyi-1" source="HxB-cP4XPRu8IZ1d6pRn-12" target="ZZl-MO3Ljh9kszsNjgB2-2">
          <mxGeometry relative="1" as="geometry" />
        </mxCell>
        <mxCell id="HxB-cP4XPRu8IZ1d6pRn-30" value="le entrega la información del estudiante&amp;nbsp;&lt;div&gt;y comanda que hacer con ella&lt;/div&gt;" style="edgeLabel;html=1;align=center;verticalAlign=middle;resizable=0;points=[];" vertex="1" connectable="0" parent="HxB-cP4XPRu8IZ1d6pRn-5">
          <mxGeometry x="0.0206" y="-2" relative="1" as="geometry">
            <mxPoint x="-47" y="-4" as="offset" />
          </mxGeometry>
        </mxCell>
        <mxCell id="HxB-cP4XPRu8IZ1d6pRn-26" value="retorna la información del&amp;nbsp;&lt;div&gt;estudiante creada en la api&lt;/div&gt;" style="text;html=1;align=center;verticalAlign=middle;resizable=0;points=[];autosize=1;strokeColor=none;fillColor=none;" vertex="1" parent="G2wVYE7ukN3yJ8T1SEyi-1">
          <mxGeometry x="415" y="195" width="170" height="40" as="geometry" />
        </mxCell>
        <mxCell id="g4YkbG8ste2k6PY45eqn-1" style="edgeStyle=orthogonalEdgeStyle;rounded=0;orthogonalLoop=1;jettySize=auto;html=1;entryX=0;entryY=0.5;entryDx=0;entryDy=0;exitX=1;exitY=0.5;exitDx=0;exitDy=0;dashed=1;" edge="1" parent="1" target="g4YkbG8ste2k6PY45eqn-3" source="G2wVYE7ukN3yJ8T1SEyi-13">
          <mxGeometry relative="1" as="geometry">
            <mxPoint x="-80" y="465" as="sourcePoint" />
            <mxPoint x="60" y="464.5" as="targetPoint" />
          </mxGeometry>
        </mxCell>
        <mxCell id="g4YkbG8ste2k6PY45eqn-2" value="realiza llamadas API a&lt;div&gt;[via NGINX usando JSON/HTTP]&lt;/div&gt;" style="edgeLabel;html=1;align=center;verticalAlign=middle;resizable=0;points=[];" vertex="1" connectable="0" parent="g4YkbG8ste2k6PY45eqn-1">
          <mxGeometry x="-0.1655" relative="1" as="geometry">
            <mxPoint x="15" y="-22" as="offset" />
          </mxGeometry>
        </mxCell>
        <mxCell id="g4YkbG8ste2k6PY45eqn-3" value="&lt;div&gt;&lt;b&gt;API&lt;/b&gt;&lt;/div&gt;&lt;div&gt;&lt;b&gt;[Container: Flask/Python]&lt;br&gt;&lt;/b&gt;&lt;div&gt;&lt;br&gt;&lt;/div&gt;&lt;div&gt;Interfaz para el manejo de la base de datos&lt;/div&gt;&lt;/div&gt;" style="rounded=1;whiteSpace=wrap;html=1;" vertex="1" parent="1">
          <mxGeometry x="10" y="415" width="200" height="99" as="geometry" />
        </mxCell>
      </root>
    </mxGraphModel>
  </diagram>
  <diagram id="hPgSutimpDTQ_NIPeHoK" name="Page-8">
    <mxGraphModel dx="2182" dy="491" grid="1" gridSize="10" guides="1" tooltips="1" connect="1" arrows="1" fold="1" page="1" pageScale="1" pageWidth="850" pageHeight="1100" math="0" shadow="0">
      <root>
        <mxCell id="0" />
        <mxCell id="1" parent="0" />
        <mxCell id="EQdVBWglqNuD52FFfnoR-1" value="" style="swimlane;startSize=0;" vertex="1" parent="1">
          <mxGeometry x="-465" y="240" width="910" height="520" as="geometry" />
        </mxCell>
        <mxCell id="l4Q7FCXhnFRZSLajYH1T-7" value="&lt;div&gt;&lt;b&gt;Controlador&lt;/b&gt;&lt;/div&gt;&lt;div&gt;&lt;b&gt;[Container: Flask/Python]&lt;br&gt;&lt;/b&gt;&lt;div&gt;&lt;br&gt;&lt;/div&gt;&lt;div&gt;Interfaz para el manejo de la base de datos&lt;/div&gt;&lt;/div&gt;" style="rounded=1;whiteSpace=wrap;html=1;" vertex="1" parent="EQdVBWglqNuD52FFfnoR-1">
          <mxGeometry x="335" y="350" width="200" height="99" as="geometry" />
        </mxCell>
        <mxCell id="l4Q7FCXhnFRZSLajYH1T-1" style="edgeStyle=orthogonalEdgeStyle;rounded=0;orthogonalLoop=1;jettySize=auto;html=1;entryX=0.5;entryY=0;entryDx=0;entryDy=0;dashed=1;exitX=0.5;exitY=1;exitDx=0;exitDy=0;" edge="1" parent="1" target="l4Q7FCXhnFRZSLajYH1T-3" source="l4Q7FCXhnFRZSLajYH1T-7">
          <mxGeometry relative="1" as="geometry">
            <mxPoint x="-310" y="820" as="sourcePoint" />
            <mxPoint x="-80" y="819.5" as="targetPoint" />
          </mxGeometry>
        </mxCell>
        <mxCell id="l4Q7FCXhnFRZSLajYH1T-2" value="realiza llamadas API a&lt;div&gt;[via NGINX usando JSON/HTTP]&lt;/div&gt;" style="edgeLabel;html=1;align=center;verticalAlign=middle;resizable=0;points=[];" vertex="1" connectable="0" parent="l4Q7FCXhnFRZSLajYH1T-1">
          <mxGeometry x="-0.1655" relative="1" as="geometry">
            <mxPoint x="15" y="-22" as="offset" />
          </mxGeometry>
        </mxCell>
        <mxCell id="l4Q7FCXhnFRZSLajYH1T-3" value="&lt;div&gt;&lt;b&gt;API&lt;/b&gt;&lt;/div&gt;&lt;div&gt;&lt;b&gt;[Container: Flask/Python]&lt;br&gt;&lt;/b&gt;&lt;div&gt;&lt;br&gt;&lt;/div&gt;&lt;div&gt;Interfaz para el manejo de la base de datos&lt;/div&gt;&lt;/div&gt;" style="rounded=1;whiteSpace=wrap;html=1;" vertex="1" parent="1">
          <mxGeometry x="-130" y="800" width="200" height="99" as="geometry" />
        </mxCell>
      </root>
    </mxGraphModel>
  </diagram>
</mxfile>
